<?xml version="1.0" encoding="UTF-8" standalone="no"?>
<!DOCTYPE svg PUBLIC "-//W3C//DTD SVG 1.1//EN" "http://www.w3.org/Graphics/SVG/1.1/DTD/svg11.dtd">
<svg xmlns="http://www.w3.org/2000/svg" version="1.1" viewBox="0.00 0.00 614.00 430.00">
<g stroke-width="2.00" fill="none" stroke-linecap="butt">
<path stroke="#fbc69a" vector-effect="non-scaling-stroke" d="
  M 176.26 127.59
  Q 162.87 128.23 149.80 131.61
  A 0.72 0.72 0.0 0 0 149.35 132.66
  L 154.83 142.39
  Q 155.09 142.85 155.60 142.73
  C 184.08 135.71 223.59 140.41 242.82 165.87
  Q 243.13 166.28 243.12 166.79
  L 242.98 179.25"
/>
<path stroke="#acacad" vector-effect="non-scaling-stroke" d="
  M 242.98 179.25
  L 243.02 192.48"
/>
<path stroke="#fbc69a" vector-effect="non-scaling-stroke" d="
  M 243.02 192.48
  L 243.02 205.45"
/>
<path stroke="#acacad" vector-effect="non-scaling-stroke" d="
  M 243.02 205.45
  L 243.15 218.52"
/>
<path stroke="#fbc69a" vector-effect="non-scaling-stroke" d="
  M 243.15 218.52
  Q 229.74 233.72 210.23 239.36
  A 0.53 0.53 0.0 0 0 209.91 240.13
  L 216.11 250.95
  A 0.62 0.60 65.7 0 0 216.82 251.23
  Q 233.34 245.68 246.46 234.25
  Q 246.86 233.91 247.31 234.17
  L 309.46 270.03
  Q 309.88 270.28 310.30 270.03
  L 372.43 234.17
  Q 372.88 233.91 373.27 234.25
  Q 386.40 245.70 402.93 251.25
  Q 403.43 251.41 403.68 250.96
  L 409.76 240.25
  A 0.61 0.61 0.0 0 0 409.40 239.36
  Q 389.71 233.48 376.59 218.51"
/>
<path stroke="#acacad" vector-effect="non-scaling-stroke" d="
  M 376.59 218.51
  L 376.61 205.42"
/>
<path stroke="#fbc69a" vector-effect="non-scaling-stroke" d="
  M 376.61 205.42
  L 376.54 192.48"
/>
<path stroke="#acacad" vector-effect="non-scaling-stroke" d="
  M 376.54 192.48
  L 376.62 179.26"
/>
<path stroke="#fbc69a" vector-effect="non-scaling-stroke" d="
  M 376.62 179.26
  L 376.52 166.85
  Q 376.52 166.35 376.82 165.95
  C 395.60 140.95 435.19 135.49 463.16 142.61
  Q 465.94 143.32 465.96 140.45
  L 466.02 131.09
  Q 466.02 130.63 465.57 130.53
  Q 454.49 128.07 443.27 127.58"
/>
<path stroke="#d2e7a3" vector-effect="non-scaling-stroke" d="
  M 443.27 127.58
  L 443.29 51.07
  Q 443.29 50.60 442.88 50.37
  L 377.07 12.40
  Q 376.55 12.10 376.04 12.39
  L 309.79 50.61"
/>
<path stroke="#c993be" vector-effect="non-scaling-stroke" d="
  M 309.79 50.61
  L 243.59 12.37
  Q 243.12 12.09 242.64 12.37
  L 176.71 50.44
  Q 176.26 50.70 176.26 51.22
  L 176.26 127.59"
/>
<path stroke="#9b7a62" vector-effect="non-scaling-stroke" d="
  M 309.79 50.61
  L 309.76 116.66"
/>
<path stroke="#c993be" vector-effect="non-scaling-stroke" d="
  M 309.76 116.66
  Q 301.19 116.80 292.66 118.40
  Q 292.10 118.50 291.82 118.01
  L 279.98 97.31
  A 1.11 1.10 75.0 0 0 279.02 96.75
  L 253.04 96.75
  Q 252.56 96.75 252.80 97.17
  L 257.61 105.58
  A 0.84 0.81 74.7 0 0 258.32 106.00
  L 273.76 106.00
  Q 274.40 106.00 274.72 106.55
  L 282.68 120.33
  A 0.64 0.63 -23.8 0 1 282.32 121.25
  C 267.23 126.24 253.62 135.92 246.55 150.78"
/>
<path stroke="#c55a59" vector-effect="non-scaling-stroke" d="
  M 246.55 150.78
  C 226.94 134.10 202.14 126.64 176.26 127.59"
/>
<path stroke="#ceae3e" vector-effect="non-scaling-stroke" d="
  M 443.27 127.58
  C 418.01 126.75 392.52 133.84 373.24 150.75"
/>
<path stroke="#d2e7a3" vector-effect="non-scaling-stroke" d="
  M 373.24 150.75
  C 365.72 135.74 352.75 126.47 337.23 121.14
  Q 336.68 120.95 336.97 120.45
  L 345.00 106.46
  Q 345.27 106.00 345.79 106.00
  L 361.50 106.00
  Q 362.02 106.00 362.28 105.54
  L 366.90 97.42
  A 0.45 0.45 0.0 0 0 366.51 96.75
  L 340.56 96.75
  Q 340.04 96.75 339.79 97.20
  L 327.81 118.04
  Q 327.57 118.46 327.09 118.37
  Q 318.45 116.71 309.76 116.66"
/>
<path stroke="#fbc69a" vector-effect="non-scaling-stroke" d="
  M 373.24 150.75
  Q 375.93 157.38 376.56 165.39
  A 0.80 0.80 0.0 0 1 375.76 166.25
  L 244.00 166.25
  A 0.76 0.76 0.0 0 1 243.24 165.47
  Q 243.44 157.89 246.55 150.78"
/>
<path stroke="#a87348" vector-effect="non-scaling-stroke" d="
  M 376.62 179.26
  L 242.98 179.25"
/>
<path stroke="#a87348" vector-effect="non-scaling-stroke" d="
  M 376.54 192.48
  L 243.02 192.48"
/>
<path stroke="#a87348" vector-effect="non-scaling-stroke" d="
  M 376.61 205.42
  L 243.02 205.45"
/>
<path stroke="#a87348" vector-effect="non-scaling-stroke" d="
  M 376.59 218.51
  L 243.15 218.52"
/>
<path stroke="#fbc69a" vector-effect="non-scaling-stroke" d="
  M 241.42 366.00
  A 0.31 0.31 0.0 0 0 241.73 365.73
  L 247.39 326.80
  A 0.31 0.31 0.0 0 1 247.99 326.73
  L 263.50 365.80
  A 0.31 0.31 0.0 0 0 263.79 366.00
  L 270.63 366.00
  A 0.31 0.31 0.0 0 0 270.92 365.81
  L 287.19 326.72
  A 0.31 0.31 0.0 0 1 287.79 326.80
  L 292.72 365.73
  A 0.31 0.31 0.0 0 0 293.02 366.00
  L 310.57 366.00
  A 0.31 0.31 0.0 0 0 310.88 365.64
  L 300.39 296.51
  A 0.31 0.31 0.0 0 0 300.08 296.25
  L 282.55 296.25
  A 0.31 0.31 0.0 0 0 282.26 296.44
  L 267.69 332.63
  A 0.31 0.31 0.0 0 1 267.11 332.63
  L 253.41 296.45
  A 0.31 0.31 0.0 0 0 253.12 296.25
  L 235.72 296.25
  A 0.31 0.31 0.0 0 0 235.42 296.51
  L 223.68 365.64
  A 0.31 0.31 0.0 0 0 223.99 366.00
  L 241.42 366.00"
/>
<path stroke="#fbc69a" vector-effect="non-scaling-stroke" d="
  M 338.5604 296.5458
  A 0.27 0.27 0.0 0 0 338.2908 296.2753
  L 320.7709 296.2448
  A 0.27 0.27 0.0 0 0 320.5004 296.5143
  L 320.3796 365.7142
  A 0.27 0.27 0.0 0 0 320.6492 365.9847
  L 338.1691 366.0152
  A 0.27 0.27 0.0 0 0 338.4396 365.7457
  L 338.5604 296.5458"
/>
<path stroke="#fbc69a" vector-effect="non-scaling-stroke" d="
  M 381.25 312.33
  A 0.58 0.58 0.0 0 1 381.83 311.75
  L 395.67 311.75
  A 0.58 0.58 0.0 0 0 396.25 311.17
  L 396.25 296.83
  A 0.58 0.58 0.0 0 0 395.67 296.25
  L 348.58 296.25
  A 0.58 0.58 0.0 0 0 348.00 296.83
  L 348.00 311.17
  A 0.58 0.58 0.0 0 0 348.58 311.75
  L 362.54 311.75
  A 0.58 0.58 0.0 0 1 363.12 312.33
  L 363.13 365.42
  A 0.58 0.58 0.0 0 0 363.71 366.00
  L 380.67 366.00
  A 0.58 0.58 0.0 0 0 381.25 365.42
  L 381.25 312.33"
/>
<path stroke="#acacad" vector-effect="non-scaling-stroke" d="
  M 422.6085 397.7790
  A 10.13 10.13 0.0 0 0 412.4962 387.6313
  L 410.9962 387.6287
  A 10.13 10.13 0.0 0 0 400.8485 397.7410
  L 400.8315 407.4810
  A 10.13 10.13 0.0 0 0 410.9438 417.6287
  L 412.4438 417.6313
  A 10.13 10.13 0.0 0 0 422.5915 407.5190
  L 422.6085 397.7790"
/>
<path stroke="#acacad" vector-effect="non-scaling-stroke" d="
  M 187.89 412.25
  A 0.37 0.37 0.0 0 1 188.24 412.50
  L 189.81 417.25
  A 0.37 0.37 0.0 0 0 190.16 417.50
  L 195.51 417.50
  A 0.37 0.37 0.0 0 0 195.86 417.00
  L 185.28 387.99
  A 0.37 0.37 0.0 0 0 184.93 387.75
  L 180.82 387.75
  A 0.37 0.37 0.0 0 0 180.47 387.99
  L 169.90 417.00
  A 0.37 0.37 0.0 0 0 170.25 417.50
  L 175.66 417.50
  A 0.37 0.37 0.0 0 0 176.01 417.25
  L 177.60 412.50
  A 0.37 0.37 0.0 0 1 177.95 412.25
  L 187.89 412.25"
/>
<path stroke="#acacad" vector-effect="non-scaling-stroke" d="
  M 214.44 405.47
  C 223.20 401.89 220.75 388.18 210.74 387.77
  Q 207.80 387.65 198.97 387.79
  Q 198.50 387.80 198.50 388.27
  L 198.50 417.00
  Q 198.50 417.50 199.00 417.50
  L 203.89 417.50
  Q 204.53 417.50 204.53 416.86
  L 204.44 406.93
  A 0.68 0.68 0.0 0 1 205.14 406.24
  C 208.20 406.31 211.74 406.58 214.44 405.47"
/>
<path stroke="#acacad" vector-effect="non-scaling-stroke" d="
  M 239.88 405.46
  C 248.42 401.67 246.85 388.53 236.92 387.94
  Q 230.92 387.58 224.91 387.80
  Q 224.26 387.82 224.26 388.47
  L 224.23 416.86
  Q 224.23 417.50 224.86 417.50
  L 229.40 417.50
  Q 230.05 417.50 230.04 416.85
  L 229.98 406.98
  Q 229.97 406.30 230.65 406.28
  C 233.79 406.16 237.16 406.67 239.88 405.46"
/>
<path stroke="#acacad" vector-effect="non-scaling-stroke" d="
  M 268.76 388.02
  A 0.27 0.27 0.0 0 0 268.49 387.75
  L 263.27 387.75
  A 0.27 0.27 0.0 0 0 263.00 388.02
  L 263.00 417.24
  A 0.27 0.27 0.0 0 0 263.27 417.51
  L 268.49 417.51
  A 0.27 0.27 0.0 0 0 268.76 417.24
  L 268.76 388.02"
/>
<path stroke="#acacad" vector-effect="non-scaling-stroke" d="
  M 280.50 400.23
  A 0.23 0.23 0.0 0 1 280.92 400.11
  L 291.75 416.97
  Q 292.09 417.50 292.73 417.50
  L 296.79 417.50
  Q 297.33 417.50 297.32 416.96
  L 297.22 388.33
  Q 297.22 387.75 296.64 387.75
  L 292.00 387.75
  Q 291.50 387.75 291.50 388.25
  L 291.50 404.94
  Q 291.50 405.90 290.98 405.10
  L 280.12 388.20
  Q 279.83 387.75 279.29 387.75
  L 275.20 387.75
  Q 274.64 387.75 274.65 388.30
  L 274.77 416.89
  Q 274.78 417.50 275.39 417.50
  L 279.87 417.50
  Q 280.50 417.50 280.50 416.88
  L 280.50 400.23"
/>
<path stroke="#acacad" vector-effect="non-scaling-stroke" d="
  M 311.94 405.98
  L 306.51 388.29
  Q 306.35 387.75 305.79 387.75
  L 301.03 387.75
  A 0.55 0.55 0.0 0 0 300.51 388.47
  L 309.59 415.96
  A 2.84 2.84 0.0 0 0 314.99 415.96
  L 324.10 388.34
  Q 324.30 387.75 323.68 387.75
  L 318.89 387.75
  Q 318.22 387.75 318.03 388.38
  L 312.58 405.98
  A 0.34 0.34 0.0 0 1 311.94 405.98"
/>
<path stroke="#acacad" vector-effect="non-scaling-stroke" d="
  M 333.64 412.25
  A 0.35 0.35 0.0 0 1 333.29 411.91
  L 333.15 405.61
  A 0.35 0.35 0.0 0 1 333.50 405.25
  L 344.40 405.25
  A 0.35 0.35 0.0 0 0 344.75 404.90
  L 344.75 400.35
  A 0.35 0.35 0.0 0 0 344.40 400.00
  L 333.57 400.00
  A 0.35 0.35 0.0 0 1 333.22 399.66
  L 333.09 393.36
  A 0.35 0.35 0.0 0 1 333.44 393.00
  L 346.40 393.00
  A 0.35 0.35 0.0 0 0 346.75 392.65
  L 346.75 388.10
  A 0.35 0.35 0.0 0 0 346.40 387.75
  L 327.60 387.75
  A 0.35 0.35 0.0 0 0 327.25 388.10
  L 327.25 417.15
  A 0.35 0.35 0.0 0 0 327.60 417.50
  L 346.40 417.50
  A 0.35 0.35 0.0 0 0 346.75 417.15
  L 346.75 412.60
  A 0.35 0.35 0.0 0 0 346.40 412.25
  L 333.64 412.25"
/>
<path stroke="#acacad" vector-effect="non-scaling-stroke" d="
  M 357.50 400.58
  A 0.31 0.31 0.0 0 1 358.07 400.42
  L 368.97 417.36
  A 0.31 0.31 0.0 0 0 369.23 417.50
  L 373.94 417.50
  A 0.31 0.31 0.0 0 0 374.25 417.19
  L 374.25 388.06
  A 0.31 0.31 0.0 0 0 373.94 387.75
  L 368.81 387.75
  A 0.31 0.31 0.0 0 0 368.50 388.06
  L 368.50 404.92
  A 0.31 0.31 0.0 0 1 367.93 405.08
  L 356.85 387.89
  A 0.31 0.31 0.0 0 0 356.59 387.75
  L 351.81 387.75
  A 0.31 0.31 0.0 0 0 351.50 388.06
  L 351.50 417.19
  A 0.31 0.31 0.0 0 0 351.81 417.50
  L 357.19 417.50
  A 0.31 0.31 0.0 0 0 357.50 417.19
  L 357.50 400.58"
/>
<path stroke="#acacad" vector-effect="non-scaling-stroke" d="
  M 391.50 393.32
  A 0.32 0.32 0.0 0 1 391.82 393.00
  L 398.93 393.00
  A 0.32 0.32 0.0 0 0 399.25 392.68
  L 399.25 388.07
  A 0.32 0.32 0.0 0 0 398.93 387.75
  L 378.32 387.75
  A 0.32 0.32 0.0 0 0 378.00 388.07
  L 378.00 392.68
  A 0.32 0.32 0.0 0 0 378.32 393.00
  L 385.43 393.00
  A 0.32 0.32 0.0 0 1 385.75 393.32
  L 385.75 417.18
  A 0.32 0.32 0.0 0 0 386.07 417.50
  L 391.18 417.50
  A 0.32 0.32 0.0 0 0 391.50 417.18
  L 391.50 393.32"
/>
<path stroke="#acacad" vector-effect="non-scaling-stroke" d="
  M 437.59 406.17
  L 442.96 416.96
  Q 443.23 417.50 443.84 417.50
  L 449.47 417.50
  Q 450.07 417.50 449.79 416.98
  L 443.72 405.34
  Q 443.51 404.94 443.89 404.70
  Q 451.20 399.92 447.70 392.66
  C 444.54 386.10 435.14 387.69 427.97 387.79
  Q 427.50 387.79 427.50 388.26
  L 427.50 417.00
  Q 427.50 417.50 428.00 417.50
  L 432.65 417.50
  Q 433.30 417.50 433.29 416.85
  L 433.23 406.39
  Q 433.23 405.77 433.86 405.76
  L 436.88 405.73
  Q 437.37 405.73 437.59 406.17"
/>
<path stroke="#acacad" vector-effect="non-scaling-stroke" d="
  M 299.75 146.61
  A 6.51 6.51 0.0 0 0 293.24 140.10
  A 6.51 6.51 0.0 0 0 286.73 146.61
  A 6.51 6.51 0.0 0 0 293.24 153.12
  A 6.51 6.51 0.0 0 0 299.75 146.61"
/>
<path stroke="#acacad" vector-effect="non-scaling-stroke" d="
  M 332.93 146.62
  A 6.49 6.49 0.0 0 0 326.44 140.13
  A 6.49 6.49 0.0 0 0 319.95 146.62
  A 6.49 6.49 0.0 0 0 326.44 153.11
  A 6.49 6.49 0.0 0 0 332.93 146.62"
/>
<path stroke="#acacad" vector-effect="non-scaling-stroke" d="
  M 416.6225 397.5329
  A 4.66 4.66 0.0 0 0 411.9462 392.8892
  L 411.4262 392.8910
  A 4.66 4.66 0.0 0 0 406.7825 397.5672
  L 406.8175 407.5871
  A 4.66 4.66 0.0 0 0 411.4938 412.2308
  L 412.0138 412.2290
  A 4.66 4.66 0.0 0 0 416.6575 407.5528
  L 416.6225 397.5329"
/>
<path stroke="#acacad" vector-effect="non-scaling-stroke" d="
  M 179.58 406.78
  A 0.34 0.34 0.0 0 0 179.90 407.23
  L 186.01 407.27
  A 0.34 0.34 0.0 0 0 186.33 406.82
  L 183.32 397.95
  A 0.34 0.34 0.0 0 0 182.68 397.95
  L 179.58 406.78"
/>
<path stroke="#acacad" vector-effect="non-scaling-stroke" d="
  M 204.51 393.32
  L 204.49 400.72
  A 0.29 0.29 0.0 0 0 204.78 401.01
  L 209.50 401.02
  A 4.27 3.54 0.1 0 0 213.78 397.49
  L 213.78 396.59
  A 4.27 3.54 0.1 0 0 209.52 393.04
  L 204.80 393.03
  A 0.29 0.29 0.0 0 0 204.51 393.32"
/>
<path stroke="#acacad" vector-effect="non-scaling-stroke" d="
  M 230.00 393.62
  L 230.00 400.42
  A 0.60 0.60 0.0 0 0 230.60 401.02
  L 235.14 401.02
  A 4.38 3.76 -0.0 0 0 239.52 397.26
  L 239.52 396.78
  A 4.38 3.76 0.0 0 0 235.14 393.02
  L 230.60 393.02
  A 0.60 0.60 0.0 0 0 230.00 393.62"
/>
<path stroke="#acacad" vector-effect="non-scaling-stroke" d="
  M 433.44 393.32
  L 433.42 400.44
  A 0.31 0.31 0.0 0 0 433.73 400.75
  L 438.33 400.76
  A 4.43 3.65 0.1 0 0 442.77 397.12
  L 442.77 396.68
  A 4.43 3.65 0.1 0 0 438.35 393.02
  L 433.75 393.01
  A 0.31 0.31 0.0 0 0 433.44 393.32"
/>
</g>
<path fill="#ffffff" d="
  M 0.00 0.00
  L 614.00 0.00
  L 614.00 430.00
  L 0.00 430.00
  L 0.00 0.00
  Z
  M 176.26 127.59
  Q 162.87 128.23 149.80 131.61
  A 0.72 0.72 0.0 0 0 149.35 132.66
  L 154.83 142.39
  Q 155.09 142.85 155.60 142.73
  C 184.08 135.71 223.59 140.41 242.82 165.87
  Q 243.13 166.28 243.12 166.79
  L 242.98 179.25
  L 243.02 192.48
  L 243.02 205.45
  L 243.15 218.52
  Q 229.74 233.72 210.23 239.36
  A 0.53 0.53 0.0 0 0 209.91 240.13
  L 216.11 250.95
  A 0.62 0.60 65.7 0 0 216.82 251.23
  Q 233.34 245.68 246.46 234.25
  Q 246.86 233.91 247.31 234.17
  L 309.46 270.03
  Q 309.88 270.28 310.30 270.03
  L 372.43 234.17
  Q 372.88 233.91 373.27 234.25
  Q 386.40 245.70 402.93 251.25
  Q 403.43 251.41 403.68 250.96
  L 409.76 240.25
  A 0.61 0.61 0.0 0 0 409.40 239.36
  Q 389.71 233.48 376.59 218.51
  L 376.61 205.42
  L 376.54 192.48
  L 376.62 179.26
  L 376.52 166.85
  Q 376.52 166.35 376.82 165.95
  C 395.60 140.95 435.19 135.49 463.16 142.61
  Q 465.94 143.32 465.96 140.45
  L 466.02 131.09
  Q 466.02 130.63 465.57 130.53
  Q 454.49 128.07 443.27 127.58
  L 443.29 51.07
  Q 443.29 50.60 442.88 50.37
  L 377.07 12.40
  Q 376.55 12.10 376.04 12.39
  L 309.79 50.61
  L 243.59 12.37
  Q 243.12 12.09 242.64 12.37
  L 176.71 50.44
  Q 176.26 50.70 176.26 51.22
  L 176.26 127.59
  Z
  M 241.42 366.00
  A 0.31 0.31 0.0 0 0 241.73 365.73
  L 247.39 326.80
  A 0.31 0.31 0.0 0 1 247.99 326.73
  L 263.50 365.80
  A 0.31 0.31 0.0 0 0 263.79 366.00
  L 270.63 366.00
  A 0.31 0.31 0.0 0 0 270.92 365.81
  L 287.19 326.72
  A 0.31 0.31 0.0 0 1 287.79 326.80
  L 292.72 365.73
  A 0.31 0.31 0.0 0 0 293.02 366.00
  L 310.57 366.00
  A 0.31 0.31 0.0 0 0 310.88 365.64
  L 300.39 296.51
  A 0.31 0.31 0.0 0 0 300.08 296.25
  L 282.55 296.25
  A 0.31 0.31 0.0 0 0 282.26 296.44
  L 267.69 332.63
  A 0.31 0.31 0.0 0 1 267.11 332.63
  L 253.41 296.45
  A 0.31 0.31 0.0 0 0 253.12 296.25
  L 235.72 296.25
  A 0.31 0.31 0.0 0 0 235.42 296.51
  L 223.68 365.64
  A 0.31 0.31 0.0 0 0 223.99 366.00
  L 241.42 366.00
  Z
  M 338.5604 296.5458
  A 0.27 0.27 0.0 0 0 338.2908 296.2753
  L 320.7709 296.2448
  A 0.27 0.27 0.0 0 0 320.5004 296.5143
  L 320.3796 365.7142
  A 0.27 0.27 0.0 0 0 320.6492 365.9847
  L 338.1691 366.0152
  A 0.27 0.27 0.0 0 0 338.4396 365.7457
  L 338.5604 296.5458
  Z
  M 381.25 312.33
  A 0.58 0.58 0.0 0 1 381.83 311.75
  L 395.67 311.75
  A 0.58 0.58 0.0 0 0 396.25 311.17
  L 396.25 296.83
  A 0.58 0.58 0.0 0 0 395.67 296.25
  L 348.58 296.25
  A 0.58 0.58 0.0 0 0 348.00 296.83
  L 348.00 311.17
  A 0.58 0.58 0.0 0 0 348.58 311.75
  L 362.54 311.75
  A 0.58 0.58 0.0 0 1 363.12 312.33
  L 363.13 365.42
  A 0.58 0.58 0.0 0 0 363.71 366.00
  L 380.67 366.00
  A 0.58 0.58 0.0 0 0 381.25 365.42
  L 381.25 312.33
  Z
  M 422.6085 397.7790
  A 10.13 10.13 0.0 0 0 412.4962 387.6313
  L 410.9962 387.6287
  A 10.13 10.13 0.0 0 0 400.8485 397.7410
  L 400.8315 407.4810
  A 10.13 10.13 0.0 0 0 410.9438 417.6287
  L 412.4438 417.6313
  A 10.13 10.13 0.0 0 0 422.5915 407.5190
  L 422.6085 397.7790
  Z
  M 187.89 412.25
  A 0.37 0.37 0.0 0 1 188.24 412.50
  L 189.81 417.25
  A 0.37 0.37 0.0 0 0 190.16 417.50
  L 195.51 417.50
  A 0.37 0.37 0.0 0 0 195.86 417.00
  L 185.28 387.99
  A 0.37 0.37 0.0 0 0 184.93 387.75
  L 180.82 387.75
  A 0.37 0.37 0.0 0 0 180.47 387.99
  L 169.90 417.00
  A 0.37 0.37 0.0 0 0 170.25 417.50
  L 175.66 417.50
  A 0.37 0.37 0.0 0 0 176.01 417.25
  L 177.60 412.50
  A 0.37 0.37 0.0 0 1 177.95 412.25
  L 187.89 412.25
  Z
  M 214.44 405.47
  C 223.20 401.89 220.75 388.18 210.74 387.77
  Q 207.80 387.65 198.97 387.79
  Q 198.50 387.80 198.50 388.27
  L 198.50 417.00
  Q 198.50 417.50 199.00 417.50
  L 203.89 417.50
  Q 204.53 417.50 204.53 416.86
  L 204.44 406.93
  A 0.68 0.68 0.0 0 1 205.14 406.24
  C 208.20 406.31 211.74 406.58 214.44 405.47
  Z
  M 239.88 405.46
  C 248.42 401.67 246.85 388.53 236.92 387.94
  Q 230.92 387.58 224.91 387.80
  Q 224.26 387.82 224.26 388.47
  L 224.23 416.86
  Q 224.23 417.50 224.86 417.50
  L 229.40 417.50
  Q 230.05 417.50 230.04 416.85
  L 229.98 406.98
  Q 229.97 406.30 230.65 406.28
  C 233.79 406.16 237.16 406.67 239.88 405.46
  Z
  M 268.76 388.02
  A 0.27 0.27 0.0 0 0 268.49 387.75
  L 263.27 387.75
  A 0.27 0.27 0.0 0 0 263.00 388.02
  L 263.00 417.24
  A 0.27 0.27 0.0 0 0 263.27 417.51
  L 268.49 417.51
  A 0.27 0.27 0.0 0 0 268.76 417.24
  L 268.76 388.02
  Z
  M 280.50 400.23
  A 0.23 0.23 0.0 0 1 280.92 400.11
  L 291.75 416.97
  Q 292.09 417.50 292.73 417.50
  L 296.79 417.50
  Q 297.33 417.50 297.32 416.96
  L 297.22 388.33
  Q 297.22 387.75 296.64 387.75
  L 292.00 387.75
  Q 291.50 387.75 291.50 388.25
  L 291.50 404.94
  Q 291.50 405.90 290.98 405.10
  L 280.12 388.20
  Q 279.83 387.75 279.29 387.75
  L 275.20 387.75
  Q 274.64 387.75 274.65 388.30
  L 274.77 416.89
  Q 274.78 417.50 275.39 417.50
  L 279.87 417.50
  Q 280.50 417.50 280.50 416.88
  L 280.50 400.23
  Z
  M 311.94 405.98
  L 306.51 388.29
  Q 306.35 387.75 305.79 387.75
  L 301.03 387.75
  A 0.55 0.55 0.0 0 0 300.51 388.47
  L 309.59 415.96
  A 2.84 2.84 0.0 0 0 314.99 415.96
  L 324.10 388.34
  Q 324.30 387.75 323.68 387.75
  L 318.89 387.75
  Q 318.22 387.75 318.03 388.38
  L 312.58 405.98
  A 0.34 0.34 0.0 0 1 311.94 405.98
  Z
  M 333.64 412.25
  A 0.35 0.35 0.0 0 1 333.29 411.91
  L 333.15 405.61
  A 0.35 0.35 0.0 0 1 333.50 405.25
  L 344.40 405.25
  A 0.35 0.35 0.0 0 0 344.75 404.90
  L 344.75 400.35
  A 0.35 0.35 0.0 0 0 344.40 400.00
  L 333.57 400.00
  A 0.35 0.35 0.0 0 1 333.22 399.66
  L 333.09 393.36
  A 0.35 0.35 0.0 0 1 333.44 393.00
  L 346.40 393.00
  A 0.35 0.35 0.0 0 0 346.75 392.65
  L 346.75 388.10
  A 0.35 0.35 0.0 0 0 346.40 387.75
  L 327.60 387.75
  A 0.35 0.35 0.0 0 0 327.25 388.10
  L 327.25 417.15
  A 0.35 0.35 0.0 0 0 327.60 417.50
  L 346.40 417.50
  A 0.35 0.35 0.0 0 0 346.75 417.15
  L 346.75 412.60
  A 0.35 0.35 0.0 0 0 346.40 412.25
  L 333.64 412.25
  Z
  M 357.50 400.58
  A 0.31 0.31 0.0 0 1 358.07 400.42
  L 368.97 417.36
  A 0.31 0.31 0.0 0 0 369.23 417.50
  L 373.94 417.50
  A 0.31 0.31 0.0 0 0 374.25 417.19
  L 374.25 388.06
  A 0.31 0.31 0.0 0 0 373.94 387.75
  L 368.81 387.75
  A 0.31 0.31 0.0 0 0 368.50 388.06
  L 368.50 404.92
  A 0.31 0.31 0.0 0 1 367.93 405.08
  L 356.85 387.89
  A 0.31 0.31 0.0 0 0 356.59 387.75
  L 351.81 387.75
  A 0.31 0.31 0.0 0 0 351.50 388.06
  L 351.50 417.19
  A 0.31 0.31 0.0 0 0 351.81 417.50
  L 357.19 417.50
  A 0.31 0.31 0.0 0 0 357.50 417.19
  L 357.50 400.58
  Z
  M 391.50 393.32
  A 0.32 0.32 0.0 0 1 391.82 393.00
  L 398.93 393.00
  A 0.32 0.32 0.0 0 0 399.25 392.68
  L 399.25 388.07
  A 0.32 0.32 0.0 0 0 398.93 387.75
  L 378.32 387.75
  A 0.32 0.32 0.0 0 0 378.00 388.07
  L 378.00 392.68
  A 0.32 0.32 0.0 0 0 378.32 393.00
  L 385.43 393.00
  A 0.32 0.32 0.0 0 1 385.75 393.32
  L 385.75 417.18
  A 0.32 0.32 0.0 0 0 386.07 417.50
  L 391.18 417.50
  A 0.32 0.32 0.0 0 0 391.50 417.18
  L 391.50 393.32
  Z
  M 437.59 406.17
  L 442.96 416.96
  Q 443.23 417.50 443.84 417.50
  L 449.47 417.50
  Q 450.07 417.50 449.79 416.98
  L 443.72 405.34
  Q 443.51 404.94 443.89 404.70
  Q 451.20 399.92 447.70 392.66
  C 444.54 386.10 435.14 387.69 427.97 387.79
  Q 427.50 387.79 427.50 388.26
  L 427.50 417.00
  Q 427.50 417.50 428.00 417.50
  L 432.65 417.50
  Q 433.30 417.50 433.29 416.85
  L 433.23 406.39
  Q 433.23 405.77 433.86 405.76
  L 436.88 405.73
  Q 437.37 405.73 437.59 406.17
  Z"
/>
<path fill="#92267c" d="
  M 309.79 50.61
  L 309.76 116.66
  Q 301.19 116.80 292.66 118.40
  Q 292.10 118.50 291.82 118.01
  L 279.98 97.31
  A 1.11 1.10 75.0 0 0 279.02 96.75
  L 253.04 96.75
  Q 252.56 96.75 252.80 97.17
  L 257.61 105.58
  A 0.84 0.81 74.7 0 0 258.32 106.00
  L 273.76 106.00
  Q 274.40 106.00 274.72 106.55
  L 282.68 120.33
  A 0.64 0.63 -23.8 0 1 282.32 121.25
  C 267.23 126.24 253.62 135.92 246.55 150.78
  C 226.94 134.10 202.14 126.64 176.26 127.59
  L 176.26 51.22
  Q 176.26 50.70 176.71 50.44
  L 242.64 12.37
  Q 243.12 12.09 243.59 12.37
  L 309.79 50.61
  Z"
/>
<path fill="#a4ce47" d="
  M 443.27 127.58
  C 418.01 126.75 392.52 133.84 373.24 150.75
  C 365.72 135.74 352.75 126.47 337.23 121.14
  Q 336.68 120.95 336.97 120.45
  L 345.00 106.46
  Q 345.27 106.00 345.79 106.00
  L 361.50 106.00
  Q 362.02 106.00 362.28 105.54
  L 366.90 97.42
  A 0.45 0.45 0.0 0 0 366.51 96.75
  L 340.56 96.75
  Q 340.04 96.75 339.79 97.20
  L 327.81 118.04
  Q 327.57 118.46 327.09 118.37
  Q 318.45 116.71 309.76 116.66
  L 309.79 50.61
  L 376.04 12.39
  Q 376.55 12.10 377.07 12.40
  L 442.88 50.37
  Q 443.29 50.60 443.29 51.07
  L 443.27 127.58
  Z"
/>
<path fill="#ffffff" d="
  M 309.76 116.66
  Q 318.45 116.71 327.09 118.37
  Q 327.57 118.46 327.81 118.04
  L 339.79 97.20
  Q 340.04 96.75 340.56 96.75
  L 366.51 96.75
  A 0.45 0.45 0.0 0 1 366.90 97.42
  L 362.28 105.54
  Q 362.02 106.00 361.50 106.00
  L 345.79 106.00
  Q 345.27 106.00 345.00 106.46
  L 336.97 120.45
  Q 336.68 120.95 337.23 121.14
  C 352.75 126.47 365.72 135.74 373.24 150.75
  Q 375.93 157.38 376.56 165.39
  A 0.80 0.80 0.0 0 1 375.76 166.25
  L 244.00 166.25
  A 0.76 0.76 0.0 0 1 243.24 165.47
  Q 243.44 157.89 246.55 150.78
  C 253.62 135.92 267.23 126.24 282.32 121.25
  A 0.64 0.63 -23.8 0 0 282.68 120.33
  L 274.72 106.55
  Q 274.40 106.00 273.76 106.00
  L 258.32 106.00
  A 0.84 0.81 74.7 0 1 257.61 105.58
  L 252.80 97.17
  Q 252.56 96.75 253.04 96.75
  L 279.02 96.75
  A 1.11 1.10 75.0 0 1 279.98 97.31
  L 291.82 118.01
  Q 292.10 118.50 292.66 118.40
  Q 301.19 116.80 309.76 116.66
  Z
  M 299.75 146.61
  A 6.51 6.51 0.0 0 0 293.24 140.10
  A 6.51 6.51 0.0 0 0 286.73 146.61
  A 6.51 6.51 0.0 0 0 293.24 153.12
  A 6.51 6.51 0.0 0 0 299.75 146.61
  Z
  M 332.93 146.62
  A 6.49 6.49 0.0 0 0 326.44 140.13
  A 6.49 6.49 0.0 0 0 319.95 146.62
  A 6.49 6.49 0.0 0 0 326.44 153.11
  A 6.49 6.49 0.0 0 0 332.93 146.62
  Z"
/>
<path fill="#f78d35" d="
  M 176.26 127.59
  C 202.14 126.64 226.94 134.10 246.55 150.78
  Q 243.44 157.89 243.24 165.47
  A 0.76 0.76 0.0 0 0 244.00 166.25
  L 375.76 166.25
  A 0.80 0.80 0.0 0 0 376.56 165.39
  Q 375.93 157.38 373.24 150.75
  C 392.52 133.84 418.01 126.75 443.27 127.58
  Q 454.49 128.07 465.57 130.53
  Q 466.02 130.63 466.02 131.09
  L 465.96 140.45
  Q 465.94 143.32 463.16 142.61
  C 435.19 135.49 395.60 140.95 376.82 165.95
  Q 376.52 166.35 376.52 166.85
  L 376.62 179.26
  L 242.98 179.25
  L 243.12 166.79
  Q 243.13 166.28 242.82 165.87
  C 223.59 140.41 184.08 135.71 155.60 142.73
  Q 155.09 142.85 154.83 142.39
  L 149.35 132.66
  A 0.72 0.72 0.0 0 1 149.80 131.61
  Q 162.87 128.23 176.26 127.59
  Z"
/>
<circle fill="#58585a" cx="293.24" cy="146.61" r="6.51"/>
<circle fill="#58585a" cx="326.44" cy="146.62" r="6.49"/>
<path fill="#58585a" d="
  M 242.98 179.25
  L 376.62 179.26
  L 376.54 192.48
  L 243.02 192.48
  L 242.98 179.25
  Z"
/>
<path fill="#f78d35" d="
  M 376.54 192.48
  L 376.61 205.42
  L 243.02 205.45
  L 243.02 192.48
  L 376.54 192.48
  Z"
/>
<path fill="#58585a" d="
  M 376.61 205.42
  L 376.59 218.51
  L 243.15 218.52
  L 243.02 205.45
  L 376.61 205.42
  Z"
/>
<path fill="#f78d35" d="
  M 243.15 218.52
  L 376.59 218.51
  Q 389.71 233.48 409.40 239.36
  A 0.61 0.61 0.0 0 1 409.76 240.25
  L 403.68 250.96
  Q 403.43 251.41 402.93 251.25
  Q 386.40 245.70 373.27 234.25
  Q 372.88 233.91 372.43 234.17
  L 310.30 270.03
  Q 309.88 270.28 309.46 270.03
  L 247.31 234.17
  Q 246.86 233.91 246.46 234.25
  Q 233.34 245.68 216.82 251.23
  A 0.62 0.60 65.7 0 1 216.11 250.95
  L 209.91 240.13
  A 0.53 0.53 0.0 0 1 210.23 239.36
  Q 229.74 233.72 243.15 218.52
  Z"
/>
<path fill="#f78d35" d="
  M 241.42 366.00
  L 223.99 366.00
  A 0.31 0.31 0.0 0 1 223.68 365.64
  L 235.42 296.51
  A 0.31 0.31 0.0 0 1 235.72 296.25
  L 253.12 296.25
  A 0.31 0.31 0.0 0 1 253.41 296.45
  L 267.11 332.63
  A 0.31 0.31 0.0 0 0 267.69 332.63
  L 282.26 296.44
  A 0.31 0.31 0.0 0 1 282.55 296.25
  L 300.08 296.25
  A 0.31 0.31 0.0 0 1 300.39 296.51
  L 310.88 365.64
  A 0.31 0.31 0.0 0 1 310.57 366.00
  L 293.02 366.00
  A 0.31 0.31 0.0 0 1 292.72 365.73
  L 287.79 326.80
  A 0.31 0.31 0.0 0 0 287.19 326.72
  L 270.92 365.81
  A 0.31 0.31 0.0 0 1 270.63 366.00
  L 263.79 366.00
  A 0.31 0.31 0.0 0 1 263.50 365.80
  L 247.99 326.73
  A 0.31 0.31 0.0 0 0 247.39 326.80
  L 241.73 365.73
  A 0.31 0.31 0.0 0 1 241.42 366.00
  Z"
/>
<rect fill="#f78d35" x="-9.03" y="-34.87" transform="translate(329.47,331.13) rotate(0.1)" width="18.06" height="69.74" rx="0.27"/>
<path fill="#f78d35" d="
  M 381.25 312.33
  L 381.25 365.42
  A 0.58 0.58 0.0 0 1 380.67 366.00
  L 363.71 366.00
  A 0.58 0.58 0.0 0 1 363.13 365.42
  L 363.12 312.33
  A 0.58 0.58 0.0 0 0 362.54 311.75
  L 348.58 311.75
  A 0.58 0.58 0.0 0 1 348.00 311.17
  L 348.00 296.83
  A 0.58 0.58 0.0 0 1 348.58 296.25
  L 395.67 296.25
  A 0.58 0.58 0.0 0 1 396.25 296.83
  L 396.25 311.17
  A 0.58 0.58 0.0 0 1 395.67 311.75
  L 381.83 311.75
  A 0.58 0.58 0.0 0 0 381.25 312.33
  Z"
/>
<path fill="#58585a" d="
  M 422.5915 407.5190
  A 10.13 10.13 0.0 0 1 412.4438 417.6313
  L 410.9438 417.6287
  A 10.13 10.13 0.0 0 1 400.8315 407.4810
  L 400.8485 397.7410
  A 10.13 10.13 0.0 0 1 410.9962 387.6287
  L 412.4962 387.6313
  A 10.13 10.13 0.0 0 1 422.6085 397.7790
  L 422.5915 407.5190
  Z
  M 416.6225 397.5329
  A 4.66 4.66 0.0 0 0 411.9462 392.8892
  L 411.4262 392.8910
  A 4.66 4.66 0.0 0 0 406.7825 397.5672
  L 406.8175 407.5871
  A 4.66 4.66 0.0 0 0 411.4938 412.2308
  L 412.0138 412.2290
  A 4.66 4.66 0.0 0 0 416.6575 407.5528
  L 416.6225 397.5329
  Z"
/>
<path fill="#58585a" d="
  M 187.89 412.25
  L 177.95 412.25
  A 0.37 0.37 0.0 0 0 177.60 412.50
  L 176.01 417.25
  A 0.37 0.37 0.0 0 1 175.66 417.50
  L 170.25 417.50
  A 0.37 0.37 0.0 0 1 169.90 417.00
  L 180.47 387.99
  A 0.37 0.37 0.0 0 1 180.82 387.75
  L 184.93 387.75
  A 0.37 0.37 0.0 0 1 185.28 387.99
  L 195.86 417.00
  A 0.37 0.37 0.0 0 1 195.51 417.50
  L 190.16 417.50
  A 0.37 0.37 0.0 0 1 189.81 417.25
  L 188.24 412.50
  A 0.37 0.37 0.0 0 0 187.89 412.25
  Z
  M 179.58 406.78
  A 0.34 0.34 0.0 0 0 179.90 407.23
  L 186.01 407.27
  A 0.34 0.34 0.0 0 0 186.33 406.82
  L 183.32 397.95
  A 0.34 0.34 0.0 0 0 182.68 397.95
  L 179.58 406.78
  Z"
/>
<path fill="#58585a" d="
  M 210.74 387.77
  C 220.75 388.18 223.20 401.89 214.44 405.47
  C 211.74 406.58 208.20 406.31 205.14 406.24
  A 0.68 0.68 0.0 0 0 204.44 406.93
  L 204.53 416.86
  Q 204.53 417.50 203.89 417.50
  L 199.00 417.50
  Q 198.50 417.50 198.50 417.00
  L 198.50 388.27
  Q 198.50 387.80 198.97 387.79
  Q 207.80 387.65 210.74 387.77
  Z
  M 204.51 393.32
  L 204.49 400.72
  A 0.29 0.29 0.0 0 0 204.78 401.01
  L 209.50 401.02
  A 4.27 3.54 0.1 0 0 213.78 397.49
  L 213.78 396.59
  A 4.27 3.54 0.1 0 0 209.52 393.04
  L 204.80 393.03
  A 0.29 0.29 0.0 0 0 204.51 393.32
  Z"
/>
<path fill="#58585a" d="
  M 236.92 387.94
  C 246.85 388.53 248.42 401.67 239.88 405.46
  C 237.16 406.67 233.79 406.16 230.65 406.28
  Q 229.97 406.30 229.98 406.98
  L 230.04 416.85
  Q 230.05 417.50 229.40 417.50
  L 224.86 417.50
  Q 224.23 417.50 224.23 416.86
  L 224.26 388.47
  Q 224.26 387.82 224.91 387.80
  Q 230.92 387.58 236.92 387.94
  Z
  M 230.00 393.62
  L 230.00 400.42
  A 0.60 0.60 0.0 0 0 230.60 401.02
  L 235.14 401.02
  A 4.38 3.76 -0.0 0 0 239.52 397.26
  L 239.52 396.78
  A 4.38 3.76 0.0 0 0 235.14 393.02
  L 230.60 393.02
  A 0.60 0.60 0.0 0 0 230.00 393.62
  Z"
/>
<rect fill="#58585a" x="263.00" y="387.75" width="5.76" height="29.76" rx="0.27"/>
<path fill="#58585a" d="
  M 280.50 400.23
  L 280.50 416.88
  Q 280.50 417.50 279.87 417.50
  L 275.39 417.50
  Q 274.78 417.50 274.77 416.89
  L 274.65 388.30
  Q 274.64 387.75 275.20 387.75
  L 279.29 387.75
  Q 279.83 387.75 280.12 388.20
  L 290.98 405.10
  Q 291.50 405.90 291.50 404.94
  L 291.50 388.25
  Q 291.50 387.75 292.00 387.75
  L 296.64 387.75
  Q 297.22 387.75 297.22 388.33
  L 297.32 416.96
  Q 297.33 417.50 296.79 417.50
  L 292.73 417.50
  Q 292.09 417.50 291.75 416.97
  L 280.92 400.11
  A 0.23 0.23 0.0 0 0 280.50 400.23
  Z"
/>
<path fill="#58585a" d="
  M 311.94 405.98
  A 0.34 0.34 0.0 0 0 312.58 405.98
  L 318.03 388.38
  Q 318.22 387.75 318.89 387.75
  L 323.68 387.75
  Q 324.30 387.75 324.10 388.34
  L 314.99 415.96
  A 2.84 2.84 0.0 0 1 309.59 415.96
  L 300.51 388.47
  A 0.55 0.55 0.0 0 1 301.03 387.75
  L 305.79 387.75
  Q 306.35 387.75 306.51 388.29
  L 311.94 405.98
  Z"
/>
<path fill="#58585a" d="
  M 333.64 412.25
  L 346.40 412.25
  A 0.35 0.35 0.0 0 1 346.75 412.60
  L 346.75 417.15
  A 0.35 0.35 0.0 0 1 346.40 417.50
  L 327.60 417.50
  A 0.35 0.35 0.0 0 1 327.25 417.15
  L 327.25 388.10
  A 0.35 0.35 0.0 0 1 327.60 387.75
  L 346.40 387.75
  A 0.35 0.35 0.0 0 1 346.75 388.10
  L 346.75 392.65
  A 0.35 0.35 0.0 0 1 346.40 393.00
  L 333.44 393.00
  A 0.35 0.35 0.0 0 0 333.09 393.36
  L 333.22 399.66
  A 0.35 0.35 0.0 0 0 333.57 400.00
  L 344.40 400.00
  A 0.35 0.35 0.0 0 1 344.75 400.35
  L 344.75 404.90
  A 0.35 0.35 0.0 0 1 344.40 405.25
  L 333.50 405.25
  A 0.35 0.35 0.0 0 0 333.15 405.61
  L 333.29 411.91
  A 0.35 0.35 0.0 0 0 333.64 412.25
  Z"
/>
<path fill="#58585a" d="
  M 357.50 400.58
  L 357.50 417.19
  A 0.31 0.31 0.0 0 1 357.19 417.50
  L 351.81 417.50
  A 0.31 0.31 0.0 0 1 351.50 417.19
  L 351.50 388.06
  A 0.31 0.31 0.0 0 1 351.81 387.75
  L 356.59 387.75
  A 0.31 0.31 0.0 0 1 356.85 387.89
  L 367.93 405.08
  A 0.31 0.31 0.0 0 0 368.50 404.92
  L 368.50 388.06
  A 0.31 0.31 0.0 0 1 368.81 387.75
  L 373.94 387.75
  A 0.31 0.31 0.0 0 1 374.25 388.06
  L 374.25 417.19
  A 0.31 0.31 0.0 0 1 373.94 417.50
  L 369.23 417.50
  A 0.31 0.31 0.0 0 1 368.97 417.36
  L 358.07 400.42
  A 0.31 0.31 0.0 0 0 357.50 400.58
  Z"
/>
<path fill="#58585a" d="
  M 391.50 393.32
  L 391.50 417.18
  A 0.32 0.32 0.0 0 1 391.18 417.50
  L 386.07 417.50
  A 0.32 0.32 0.0 0 1 385.75 417.18
  L 385.75 393.32
  A 0.32 0.32 0.0 0 0 385.43 393.00
  L 378.32 393.00
  A 0.32 0.32 0.0 0 1 378.00 392.68
  L 378.00 388.07
  A 0.32 0.32 0.0 0 1 378.32 387.75
  L 398.93 387.75
  A 0.32 0.32 0.0 0 1 399.25 388.07
  L 399.25 392.68
  A 0.32 0.32 0.0 0 1 398.93 393.00
  L 391.82 393.00
  A 0.32 0.32 0.0 0 0 391.50 393.32
  Z"
/>
<path fill="#58585a" d="
  M 436.88 405.73
  L 433.86 405.76
  Q 433.23 405.77 433.23 406.39
  L 433.29 416.85
  Q 433.30 417.50 432.65 417.50
  L 428.00 417.50
  Q 427.50 417.50 427.50 417.00
  L 427.50 388.26
  Q 427.50 387.79 427.97 387.79
  C 435.14 387.69 444.54 386.10 447.70 392.66
  Q 451.20 399.92 443.89 404.70
  Q 443.51 404.94 443.72 405.34
  L 449.79 416.98
  Q 450.07 417.50 449.47 417.50
  L 443.84 417.50
  Q 443.23 417.50 442.96 416.96
  L 437.59 406.17
  Q 437.37 405.73 436.88 405.73
  Z
  M 433.44 393.32
  L 433.42 400.44
  A 0.31 0.31 0.0 0 0 433.73 400.75
  L 438.33 400.76
  A 4.43 3.65 0.1 0 0 442.77 397.12
  L 442.77 396.68
  A 4.43 3.65 0.1 0 0 438.35 393.02
  L 433.75 393.01
  A 0.31 0.31 0.0 0 0 433.44 393.32
  Z"
/>
<rect fill="#ffffff" x="-4.92" y="-9.67" transform="translate(411.72,402.56) rotate(-0.2)" width="9.84" height="19.34" rx="4.66"/>
<path fill="#ffffff" d="
  M 204.51 393.32
  A 0.29 0.29 0.0 0 1 204.80 393.03
  L 209.52 393.04
  A 4.27 3.54 0.1 0 1 213.78 396.59
  L 213.78 397.49
  A 4.27 3.54 0.1 0 1 209.50 401.02
  L 204.78 401.01
  A 0.29 0.29 0.0 0 1 204.49 400.72
  L 204.51 393.32
  Z"
/>
<path fill="#ffffff" d="
  M 230.00 393.62
  A 0.60 0.60 0.0 0 1 230.60 393.02
  L 235.14 393.02
  A 4.38 3.76 -0.0 0 1 239.52 396.78
  L 239.52 397.26
  A 4.38 3.76 -0.0 0 1 235.14 401.02
  L 230.60 401.02
  A 0.60 0.60 0.0 0 1 230.00 400.42
  L 230.00 393.62
  Z"
/>
<path fill="#ffffff" d="
  M 433.44 393.32
  A 0.31 0.31 0.0 0 1 433.75 393.01
  L 438.35 393.02
  A 4.43 3.65 0.1 0 1 442.77 396.68
  L 442.77 397.12
  A 4.43 3.65 0.1 0 1 438.33 400.76
  L 433.73 400.75
  A 0.31 0.31 0.0 0 1 433.42 400.44
  L 433.44 393.32
  Z"
/>
<path fill="#ffffff" d="
  M 179.58 406.78
  L 182.68 397.95
  A 0.34 0.34 0.0 0 1 183.32 397.95
  L 186.33 406.82
  A 0.34 0.34 0.0 0 1 186.01 407.27
  L 179.90 407.23
  A 0.34 0.34 0.0 0 1 179.58 406.78
  Z"
/>
</svg>
