<?xml version="1.0" encoding="UTF-8" standalone="no"?>
<!DOCTYPE svg PUBLIC "-//W3C//DTD SVG 1.1//EN" "http://www.w3.org/Graphics/SVG/1.1/DTD/svg11.dtd">
<svg xmlns="http://www.w3.org/2000/svg" version="1.1" viewBox="0.00 0.00 96.00 96.00">
<path fill="#000000" d="
  M 6.07 0.00
  L 91.04 0.00
  Q 95.17 1.24 96.00 5.32
  L 96.00 90.80
  Q 95.04 94.90 90.92 96.00
  L 4.96 96.00
  Q 1.03 94.83 0.00 90.93
  L 0.00 4.96
  Q 1.34 0.42 6.07 0.00
  Z
  M 92.00 6.15
  A 2.15 2.15 0.0 0 0 89.85 4.00
  L 6.15 4.00
  A 2.15 2.15 0.0 0 0 4.00 6.15
  L 4.00 89.85
  A 2.15 2.15 0.0 0 0 6.15 92.00
  L 89.85 92.00
  A 2.15 2.15 0.0 0 0 92.00 89.85
  L 92.00 6.15
  Z"
/>
<path fill="#000000" d="
  M 12.00 58.11
  L 12.00 34.97
  A 2.42 2.42 0.0 0 1 13.16 32.90
  L 46.77 12.42
  A 2.42 2.42 0.0 0 1 49.29 12.42
  L 82.84 32.84
  A 2.42 2.42 0.0 0 1 84.00 34.91
  L 84.00 58.16
  A 2.42 2.42 0.0 0 1 82.96 60.15
  L 49.41 83.46
  A 2.42 2.42 0.0 0 1 46.65 83.46
  L 13.04 60.10
  A 2.42 2.42 0.0 0 1 12.00 58.11
  Z
  M 18.12 34.58
  A 0.31 0.31 0.0 0 0 18.10 35.10
  L 32.10 44.81
  A 0.31 0.31 0.0 0 0 32.44 44.81
  L 45.85 36.63
  A 0.31 0.31 0.0 0 0 46.00 36.37
  L 46.00 18.12
  A 0.31 0.31 0.0 0 0 45.53 17.86
  L 18.12 34.58
  Z
  M 77.79 35.21
  A 0.45 0.45 0.0 0 0 77.77 34.46
  L 50.68 17.95
  A 0.45 0.45 0.0 0 0 50.00 18.33
  L 50.00 36.26
  A 0.45 0.45 0.0 0 0 50.22 36.64
  L 63.56 44.79
  A 0.45 0.45 0.0 0 0 64.05 44.77
  L 77.79 35.21
  Z
  M 16.64 38.91
  A 0.32 0.32 0.0 0 0 16.14 39.17
  L 15.87 54.37
  A 0.32 0.32 0.0 0 0 16.36 54.64
  L 28.06 47.25
  A 0.32 0.32 0.0 0 0 28.07 46.71
  L 16.64 38.91
  Z
  M 79.68 54.54
  A 0.31 0.31 0.0 0 0 80.16 54.27
  L 79.84 39.22
  A 0.31 0.31 0.0 0 0 79.36 38.97
  L 67.92 46.74
  A 0.31 0.31 0.0 0 0 67.93 47.26
  L 79.68 54.54
  Z
  M 59.59 47.90
  A 0.53 0.53 0.0 0 0 59.56 47.02
  L 48.33 40.19
  A 0.53 0.53 0.0 0 0 47.79 40.19
  L 36.48 46.99
  A 0.53 0.53 0.0 0 0 36.45 47.88
  L 47.71 55.70
  A 0.53 0.53 0.0 0 0 48.31 55.70
  L 59.59 47.90
  Z
  M 77.40 57.87
  L 64.40 49.95
  Q 63.98 49.69 63.57 49.98
  L 50.33 59.14
  Q 50.00 59.37 50.00 59.77
  L 50.00 77.48
  Q 50.00 78.16 50.56 77.78
  Q 63.93 68.54 77.36 59.41
  Q 77.93 59.02 77.69 58.43
  A 0.72 0.08 68.7 0 0 77.40 57.87
  Z
  M 18.08 58.21
  A 0.31 0.31 0.0 0 0 18.06 58.73
  L 45.51 77.82
  A 0.31 0.31 0.0 0 0 46.00 77.57
  L 46.00 59.53
  A 0.31 0.31 0.0 0 0 45.87 59.28
  L 32.29 49.82
  A 0.31 0.31 0.0 0 0 31.95 49.80
  L 18.08 58.21
  Z"
/>
</svg>
