<?xml version="1.0" encoding="UTF-8" standalone="no"?>
<!DOCTYPE svg PUBLIC "-//W3C//DTD SVG 1.1//EN" "http://www.w3.org/Graphics/SVG/1.1/DTD/svg11.dtd">
<svg xmlns="http://www.w3.org/2000/svg" version="1.1" viewBox="0.00 0.00 225.00 225.00">
<g stroke-width="2.00" fill="none" stroke-linecap="butt">
<path stroke="#ff989a" vector-effect="non-scaling-stroke" d="
  M 32.80 0.00
  Q 2.91 3.48 0.00 33.44"
/>
<path stroke="#ff989a" vector-effect="non-scaling-stroke" d="
  M 192.05 0.00
  Q 221.51 3.28 225.00 32.54"
/>
<path stroke="#ff989a" vector-effect="non-scaling-stroke" d="
  M 225.00 192.57
  Q 221.39 221.73 192.20 225.00"
/>
<path stroke="#ff989a" vector-effect="non-scaling-stroke" d="
  M 32.67 225.00
  Q 3.54 221.67 0.00 192.43"
/>
<path stroke="#ff989a" vector-effect="non-scaling-stroke" d="
  M 157.31 50.69
  Q 135.00 34.05 105.78 36.43
  Q 105.44 36.46 105.34 36.78
  L 104.09 40.65
  A 1.17 1.16 19.7 0 0 104.78 42.09
  Q 161.11 63.94 183.09 120.26
  Q 183.36 120.95 184.04 120.66
  L 187.77 119.08
  A 0.84 0.84 0.0 0 0 188.28 118.34
  Q 190.35 75.32 157.31 50.69"
/>
<path stroke="#ff989a" vector-effect="non-scaling-stroke" d="
  M 179.30 143.75
  C 170.25 94.17 133.30 55.81 83.66 45.97
  C 81.82 45.60 78.54 44.76 76.99 45.47
  Q 71.04 48.17 62.75 55.50
  Q 60.84 57.19 60.94 59.28
  C 61.08 62.21 60.87 65.15 61.08 68.10
  Q 61.12 68.66 61.68 68.67
  C 114.71 70.17 155.52 109.63 156.25 163.00
  A 0.51 0.51 0.0 0 0 156.76 163.50
  L 167.48 163.50
  Q 167.88 163.50 168.17 163.22
  C 172.27 159.25 180.40 149.79 179.30 143.75"
/>
<path stroke="#ff989a" vector-effect="non-scaling-stroke" d="
  M 177.09 169.89
  C 175.47 168.53 173.91 168.81 172.47 170.20
  C 126.45 214.44 50.36 194.46 33.99 132.69
  C 26.51 104.47 34.59 74.52 54.89 53.43
  C 58.51 49.67 53.78 44.81 49.91 48.87
  C 12.04 88.64 16.91 150.26 60.41 183.22
  C 95.54 209.83 144.30 206.17 176.01 176.13
  C 177.97 174.28 179.70 172.07 177.09 169.89"
/>
<path stroke="#ff989a" vector-effect="non-scaling-stroke" d="
  M 107.88 186.31
  C 123.80 153.38 102.51 115.47 66.41 111.56
  C 60.09 110.88 60.51 101.55 69.14 102.75
  C 100.23 107.06 121.10 132.47 122.25 163.50
  Q 122.47 169.31 120.05 179.71
  Q 119.92 180.26 120.45 180.42
  C 124.39 181.63 131.17 184.38 135.17 183.39
  Q 140.18 182.15 144.96 179.68
  Q 145.36 179.47 145.43 179.03
  Q 152.04 136.89 125.09 106.39
  Q 106.11 84.91 77.29 79.24
  Q 67.57 77.32 60.65 78.84
  C 32.05 85.12 30.29 124.62 57.41 134.86
  C 61.69 136.48 66.62 136.44 70.73 137.99
  C 87.15 144.19 92.43 162.77 84.42 177.87
  Q 84.17 178.35 84.60 178.67
  C 88.19 181.31 91.87 184.28 96.42 185.06
  Q 101.76 185.97 107.18 186.69
  Q 107.67 186.76 107.88 186.31"
/>
<path stroke="#ff989a" vector-effect="non-scaling-stroke" d="
  M 78.41 158.75
  A 11.40 11.40 0.0 0 0 67.01 147.35
  A 11.40 11.40 0.0 0 0 55.61 158.75
  A 11.40 11.40 0.0 0 0 67.01 170.15
  A 11.40 11.40 0.0 0 0 78.41 158.75"
/>
</g>
<path fill="#ffffff" d="
  M 0.00 0.00
  L 32.80 0.00
  Q 2.91 3.48 0.00 33.44
  L 0.00 0.00
  Z"
/>
<path fill="#ff3034" d="
  M 32.80 0.00
  L 192.05 0.00
  Q 221.51 3.28 225.00 32.54
  L 225.00 192.57
  Q 221.39 221.73 192.20 225.00
  L 32.67 225.00
  Q 3.54 221.67 0.00 192.43
  L 0.00 33.44
  Q 2.91 3.48 32.80 0.00
  Z
  M 157.31 50.69
  Q 135.00 34.05 105.78 36.43
  Q 105.44 36.46 105.34 36.78
  L 104.09 40.65
  A 1.17 1.16 19.7 0 0 104.78 42.09
  Q 161.11 63.94 183.09 120.26
  Q 183.36 120.95 184.04 120.66
  L 187.77 119.08
  A 0.84 0.84 0.0 0 0 188.28 118.34
  Q 190.35 75.32 157.31 50.69
  Z
  M 179.30 143.75
  C 170.25 94.17 133.30 55.81 83.66 45.97
  C 81.82 45.60 78.54 44.76 76.99 45.47
  Q 71.04 48.17 62.75 55.50
  Q 60.84 57.19 60.94 59.28
  C 61.08 62.21 60.87 65.15 61.08 68.10
  Q 61.12 68.66 61.68 68.67
  C 114.71 70.17 155.52 109.63 156.25 163.00
  A 0.51 0.51 0.0 0 0 156.76 163.50
  L 167.48 163.50
  Q 167.88 163.50 168.17 163.22
  C 172.27 159.25 180.40 149.79 179.30 143.75
  Z
  M 177.09 169.89
  C 175.47 168.53 173.91 168.81 172.47 170.20
  C 126.45 214.44 50.36 194.46 33.99 132.69
  C 26.51 104.47 34.59 74.52 54.89 53.43
  C 58.51 49.67 53.78 44.81 49.91 48.87
  C 12.04 88.64 16.91 150.26 60.41 183.22
  C 95.54 209.83 144.30 206.17 176.01 176.13
  C 177.97 174.28 179.70 172.07 177.09 169.89
  Z
  M 107.88 186.31
  C 123.80 153.38 102.51 115.47 66.41 111.56
  C 60.09 110.88 60.51 101.55 69.14 102.75
  C 100.23 107.06 121.10 132.47 122.25 163.50
  Q 122.47 169.31 120.05 179.71
  Q 119.92 180.26 120.45 180.42
  C 124.39 181.63 131.17 184.38 135.17 183.39
  Q 140.18 182.15 144.96 179.68
  Q 145.36 179.47 145.43 179.03
  Q 152.04 136.89 125.09 106.39
  Q 106.11 84.91 77.29 79.24
  Q 67.57 77.32 60.65 78.84
  C 32.05 85.12 30.29 124.62 57.41 134.86
  C 61.69 136.48 66.62 136.44 70.73 137.99
  C 87.15 144.19 92.43 162.77 84.42 177.87
  Q 84.17 178.35 84.60 178.67
  C 88.19 181.31 91.87 184.28 96.42 185.06
  Q 101.76 185.97 107.18 186.69
  Q 107.67 186.76 107.88 186.31
  Z
  M 78.41 158.75
  A 11.40 11.40 0.0 0 0 67.01 147.35
  A 11.40 11.40 0.0 0 0 55.61 158.75
  A 11.40 11.40 0.0 0 0 67.01 170.15
  A 11.40 11.40 0.0 0 0 78.41 158.75
  Z"
/>
<path fill="#ffffff" d="
  M 192.05 0.00
  L 225.00 0.00
  L 225.00 32.54
  Q 221.51 3.28 192.05 0.00
  Z"
/>
<path fill="#ffffff" d="
  M 157.31 50.69
  Q 190.35 75.32 188.28 118.34
  A 0.84 0.84 0.0 0 1 187.77 119.08
  L 184.04 120.66
  Q 183.36 120.95 183.09 120.26
  Q 161.11 63.94 104.78 42.09
  A 1.17 1.16 19.7 0 1 104.09 40.65
  L 105.34 36.78
  Q 105.44 36.46 105.78 36.43
  Q 135.00 34.05 157.31 50.69
  Z"
/>
<path fill="#ffffff" d="
  M 83.66 45.97
  C 133.30 55.81 170.25 94.17 179.30 143.75
  C 180.40 149.79 172.27 159.25 168.17 163.22
  Q 167.88 163.50 167.48 163.50
  L 156.76 163.50
  A 0.51 0.51 0.0 0 1 156.25 163.00
  C 155.52 109.63 114.71 70.17 61.68 68.67
  Q 61.12 68.66 61.08 68.10
  C 60.87 65.15 61.08 62.21 60.94 59.28
  Q 60.84 57.19 62.75 55.50
  Q 71.04 48.17 76.99 45.47
  C 78.54 44.76 81.82 45.60 83.66 45.97
  Z"
/>
<path fill="#ffffff" d="
  M 177.09 169.89
  C 179.70 172.07 177.97 174.28 176.01 176.13
  C 144.30 206.17 95.54 209.83 60.41 183.22
  C 16.91 150.26 12.04 88.64 49.91 48.87
  C 53.78 44.81 58.51 49.67 54.89 53.43
  C 34.59 74.52 26.51 104.47 33.99 132.69
  C 50.36 194.46 126.45 214.44 172.47 170.20
  C 173.91 168.81 175.47 168.53 177.09 169.89
  Z"
/>
<path fill="#ffffff" d="
  M 66.41 111.56
  C 102.51 115.47 123.80 153.38 107.88 186.31
  Q 107.67 186.76 107.18 186.69
  Q 101.76 185.97 96.42 185.06
  C 91.87 184.28 88.19 181.31 84.60 178.67
  Q 84.17 178.35 84.42 177.87
  C 92.43 162.77 87.15 144.19 70.73 137.99
  C 66.62 136.44 61.69 136.48 57.41 134.86
  C 30.29 124.62 32.05 85.12 60.65 78.84
  Q 67.57 77.32 77.29 79.24
  Q 106.11 84.91 125.09 106.39
  Q 152.04 136.89 145.43 179.03
  Q 145.36 179.47 144.96 179.68
  Q 140.18 182.15 135.17 183.39
  C 131.17 184.38 124.39 181.63 120.45 180.42
  Q 119.92 180.26 120.05 179.71
  Q 122.47 169.31 122.25 163.50
  C 121.10 132.47 100.23 107.06 69.14 102.75
  C 60.51 101.55 60.09 110.88 66.41 111.56
  Z"
/>
<circle fill="#ffffff" cx="67.01" cy="158.75" r="11.40"/>
<path fill="#ffffff" d="
  M 0.00 192.43
  Q 3.54 221.67 32.67 225.00
  L 0.00 225.00
  L 0.00 192.43
  Z"
/>
<path fill="#ffffff" d="
  M 225.00 192.57
  L 225.00 225.00
  L 192.20 225.00
  Q 221.39 221.73 225.00 192.57
  Z"
/>
</svg>
