<?xml version="1.0" encoding="UTF-8" standalone="no"?>
<!DOCTYPE svg PUBLIC "-//W3C//DTD SVG 1.1//EN" "http://www.w3.org/Graphics/SVG/1.1/DTD/svg11.dtd">
<svg xmlns="http://www.w3.org/2000/svg" version="1.1" viewBox="0.00 0.00 225.00 225.00">
<g stroke-width="2.00" fill="none" stroke-linecap="butt">
<path stroke="#919191" vector-effect="non-scaling-stroke" d="
  M 38.95 92.64
  Q 38.62 93.07 35.48 92.46"
/>
<path stroke="#121312" vector-effect="non-scaling-stroke" d="
  M 35.48 92.46
  Q 34.32 112.17 35.06 131.37
  Q 35.08 131.83 35.45 132.09
  Q 35.89 132.39 36.01 132.25"
/>
<path stroke="#919191" vector-effect="non-scaling-stroke" d="
  M 36.01 132.25
  L 48.92 132.20"
/>
<path stroke="#121312" vector-effect="non-scaling-stroke" d="
  M 48.92 132.20
  Q 49.36 133.01 49.84 131.51
  Q 49.99 131.05 49.99 130.47
  Q 50.04 112.64 50.00 94.81
  C 49.99 90.89 47.36 90.99 44.17 90.85
  Q 40.83 90.71 38.95 92.64"
/>
<path stroke="#818181" vector-effect="non-scaling-stroke" d="
  M 48.92 132.20
  L 48.84 93.45
  Q 48.84 92.83 48.22 92.81
  L 38.95 92.64"
/>
<path stroke="#818181" vector-effect="non-scaling-stroke" d="
  M 35.48 92.46
  Q 37.00 112.29 36.01 132.25"
/>
<path stroke="#919191" vector-effect="non-scaling-stroke" d="
  M 104.01 92.90
  L 86.93 92.80"
/>
<path stroke="#121312" vector-effect="non-scaling-stroke" d="
  M 86.93 92.80
  Q 84.94 96.33 85.71 101.57
  Q 85.80 102.23 85.46 101.71
  Q 85.37 101.56 85.33 101.32
  Q 84.80 97.92 85.05 94.45
  Q 85.08 93.92 84.71 93.55
  Q 84.18 93.01 83.30 93.54"
/>
<path stroke="#919191" vector-effect="non-scaling-stroke" d="
  M 83.30 93.54
  Q 83.31 93.38 83.29 93.24
  Q 83.24 92.86 82.85 92.86
  L 54.89 92.97
  Q 54.77 92.97 54.73 93.08
  Q 54.64 93.29 54.51 93.21"
/>
<path stroke="#121312" vector-effect="non-scaling-stroke" d="
  M 54.51 93.21
  Q 54.61 92.72 53.59 93.04
  Q 53.25 93.15 53.25 93.51
  L 53.23 131.59
  A 0.41 0.41 0.0 0 0 53.54 131.99
  Q 54.33 132.19 54.74 131.50"
/>
<path stroke="#919191" vector-effect="non-scaling-stroke" d="
  M 54.74 131.50
  Q 54.70 132.47 56.26 132.31
  Q 61.56 131.75 66.61 132.10
  A 0.83 0.83 0.0 0 0 67.50 131.27
  L 67.50 122.00
  Q 67.50 121.50 68.00 121.50
  L 77.75 121.50
  Q 78.25 121.50 78.25 121.00
  L 78.25 109.23
  A 0.76 0.76 0.0 0 0 77.53 108.47
  Q 77.39 108.47 77.23 108.50"
/>
<path stroke="#121312" vector-effect="non-scaling-stroke" d="
  M 77.23 108.50
  Q 77.59 107.21 75.93 107.12
  Q 72.68 106.95 69.42 107.00
  Q 69.34 107.01 69.31 106.92
  Q 69.27 106.80 69.22 106.67
  Q 69.21 106.63 69.31 106.62
  L 82.02 105.97
  Q 82.73 105.94 82.74 105.24
  L 82.75 104.60"
/>
<path stroke="#919191" vector-effect="non-scaling-stroke" d="
  M 82.75 104.60
  Q 82.90 105.03 83.41 103.95"
/>
<path stroke="#121312" vector-effect="non-scaling-stroke" d="
  M 83.41 103.95
  Q 84.32 104.19 85.06 103.34
  A 0.48 0.47 52.1 0 1 85.84 103.44
  L 86.63 105.00
  Q 86.83 105.39 87.26 105.43
  L 94.59 106.18
  Q 95.30 106.25 95.27 106.96
  Q 94.72 119.40 95.84 132.35"
/>
<path stroke="#919191" vector-effect="non-scaling-stroke" d="
  M 95.84 132.35
  L 108.80 132.06
  Q 109.40 132.04 109.41 131.44
  L 109.46 110.64"
/>
<path stroke="#121312" vector-effect="non-scaling-stroke" d="
  M 109.46 110.64
  Q 111.13 109.68 110.71 106.95
  A 0.59 0.59 0.0 0 1 111.21 106.27
  Q 113.95 105.86 116.72 105.63
  C 122.36 105.16 120.15 99.15 120.58 95.76
  Q 120.97 92.75 121.00 95.78
  Q 121.02 98.13 120.97 101.50
  Q 120.95 102.90 122.54 103.31"
/>
<path stroke="#919191" vector-effect="non-scaling-stroke" d="
  M 122.54 103.31
  Q 122.15 104.70 123.32 104.63
  Q 127.53 104.37 131.31 104.54
  A 0.73 0.72 1.7 0 1 132.00 105.26
  L 132.00 131.49
  Q 132.00 131.99 132.50 132.00
  L 144.76 132.12"
/>
<path stroke="#121312" vector-effect="non-scaling-stroke" d="
  M 144.76 132.12
  L 145.07 132.18
  Q 145.80 132.34 145.81 131.58
  L 146.04 106.65
  A 0.68 0.66 -1.9 0 1 146.66 106.00
  L 153.23 105.54
  A 1.96 1.95 -1.7 0 0 155.06 103.60
  L 155.13 93.29
  Q 155.13 92.47 154.38 92.80
  Q 154.01 92.96 153.86 93.51"
/>
<path stroke="#919191" vector-effect="non-scaling-stroke" d="
  M 153.86 93.51
  Q 153.81 93.34 153.74 93.19
  Q 153.54 92.82 153.12 92.82
  L 127.38 92.93"
/>
<path stroke="#121312" vector-effect="non-scaling-stroke" d="
  M 127.38 92.93
  Q 128.20 90.40 123.92 92.18
  C 121.39 93.24 117.98 91.26 115.17 91.34
  C 111.21 91.47 107.36 91.76 103.27 91.49
  Q 97.21 91.10 91.16 91.48
  Q 90.76 91.50 90.55 91.71
  Q 90.31 91.94 90.27 92.21
  A 0.51 0.51 0.0 0 0 90.77 92.80
  L 104.01 92.90"
/>
<path stroke="#818181" vector-effect="non-scaling-stroke" d="
  M 127.38 92.93
  L 123.18 92.83
  Q 122.57 92.82 122.57 93.42
  L 122.54 103.31"
/>
<path stroke="#818181" vector-effect="non-scaling-stroke" d="
  M 109.46 110.64
  L 109.47 105.06
  Q 109.47 104.50 110.02 104.50
  L 118.25 104.50
  Q 118.75 104.50 118.75 104.00
  L 118.75 93.30
  Q 118.75 92.82 118.27 92.83
  L 104.01 92.90"
/>
<path stroke="#818181" vector-effect="non-scaling-stroke" d="
  M 95.84 132.35
  Q 97.01 118.24 96.35 104.85
  Q 96.33 104.45 95.92 104.45
  L 87.78 104.61
  A 0.53 0.53 0.0 0 1 87.24 104.10
  L 86.93 92.80"
/>
<path stroke="#818181" vector-effect="non-scaling-stroke" d="
  M 153.86 93.51
  L 153.90 104.02
  A 0.54 0.54 0.0 0 1 153.36 104.56
  L 145.30 104.56
  Q 144.76 104.56 144.76 105.10
  L 144.76 132.12"
/>
<path stroke="#818181" vector-effect="non-scaling-stroke" d="
  M 83.30 93.54
  L 83.41 103.95"
/>
<path stroke="#818181" vector-effect="non-scaling-stroke" d="
  M 82.75 104.60
  L 68.06 104.64
  Q 67.50 104.65 67.50 105.21
  L 67.50 107.97
  Q 67.50 108.53 68.06 108.53
  L 77.23 108.50"
/>
<path stroke="#818181" vector-effect="non-scaling-stroke" d="
  M 54.51 93.21
  L 54.74 131.50"
/>
<path stroke="#919191" vector-effect="non-scaling-stroke" d="
  M 188.79 92.75
  L 158.66 93.01
  Q 158.10 93.01 158.10 93.58
  L 158.14 104.65"
/>
<path stroke="#121312" vector-effect="non-scaling-stroke" d="
  M 158.14 104.65
  Q 157.17 105.30 158.76 105.67
  C 160.83 106.15 163.00 105.72 165.35 106.38
  Q 165.83 106.52 165.84 107.01
  Q 166.24 122.00 165.96 130.25
  C 165.82 134.51 174.76 134.53 177.39 133.79
  A 0.78 0.78 0.0 0 0 177.20 132.25
  L 174.71 132.20"
/>
<path stroke="#919191" vector-effect="non-scaling-stroke" d="
  M 174.71 132.20
  Q 176.90 131.70 178.97 132.13
  Q 179.45 132.23 179.73 131.83
  Q 179.96 131.50 180.02 131.01"
/>
<path stroke="#121312" vector-effect="non-scaling-stroke" d="
  M 180.02 131.01
  Q 180.73 131.11 180.76 130.24
  Q 181.16 119.59 180.63 107.80
  A 1.89 1.89 0.0 0 1 182.47 105.82
  L 188.32 105.65
  A 1.72 1.72 0.0 0 0 189.99 103.93
  L 190.00 93.50
  Q 190.00 92.99 189.58 92.70
  Q 188.64 92.07 188.79 92.75"
/>
<path stroke="#818181" vector-effect="non-scaling-stroke" d="
  M 180.02 131.01
  L 180.02 105.08
  Q 180.02 104.55 180.54 104.55
  L 188.54 104.55
  Q 188.92 104.55 188.92 104.17
  L 188.79 92.75"
/>
<path stroke="#818181" vector-effect="non-scaling-stroke" d="
  M 174.71 132.20
  L 167.95 132.24
  A 0.70 0.69 0.0 0 1 167.25 131.55
  L 167.25 105.22
  Q 167.25 104.61 166.64 104.61
  L 158.14 104.65"
/>
</g>
<path fill="#222222" d="
  M 0.00 0.00
  L 225.00 0.00
  L 225.00 225.00
  L 0.00 225.00
  L 0.00 0.00
  Z
  M 38.95 92.64
  Q 38.62 93.07 35.48 92.46
  Q 34.32 112.17 35.06 131.37
  Q 35.08 131.83 35.45 132.09
  Q 35.89 132.39 36.01 132.25
  L 48.92 132.20
  Q 49.36 133.01 49.84 131.51
  Q 49.99 131.05 49.99 130.47
  Q 50.04 112.64 50.00 94.81
  C 49.99 90.89 47.36 90.99 44.17 90.85
  Q 40.83 90.71 38.95 92.64
  Z
  M 104.01 92.90
  L 86.93 92.80
  Q 84.94 96.33 85.71 101.57
  Q 85.80 102.23 85.46 101.71
  Q 85.37 101.56 85.33 101.32
  Q 84.80 97.92 85.05 94.45
  Q 85.08 93.92 84.71 93.55
  Q 84.18 93.01 83.30 93.54
  Q 83.31 93.38 83.29 93.24
  Q 83.24 92.86 82.85 92.86
  L 54.89 92.97
  Q 54.77 92.97 54.73 93.08
  Q 54.64 93.29 54.51 93.21
  Q 54.61 92.72 53.59 93.04
  Q 53.25 93.15 53.25 93.51
  L 53.23 131.59
  A 0.41 0.41 0.0 0 0 53.54 131.99
  Q 54.33 132.19 54.74 131.50
  Q 54.70 132.47 56.26 132.31
  Q 61.56 131.75 66.61 132.10
  A 0.83 0.83 0.0 0 0 67.50 131.27
  L 67.50 122.00
  Q 67.50 121.50 68.00 121.50
  L 77.75 121.50
  Q 78.25 121.50 78.25 121.00
  L 78.25 109.23
  A 0.76 0.76 0.0 0 0 77.53 108.47
  Q 77.39 108.47 77.23 108.50
  Q 77.59 107.21 75.93 107.12
  Q 72.68 106.95 69.42 107.00
  Q 69.34 107.01 69.31 106.92
  Q 69.27 106.80 69.22 106.67
  Q 69.21 106.63 69.31 106.62
  L 82.02 105.97
  Q 82.73 105.94 82.74 105.24
  L 82.75 104.60
  Q 82.90 105.03 83.41 103.95
  Q 84.32 104.19 85.06 103.34
  A 0.48 0.47 52.1 0 1 85.84 103.44
  L 86.63 105.00
  Q 86.83 105.39 87.26 105.43
  L 94.59 106.18
  Q 95.30 106.25 95.27 106.96
  Q 94.72 119.40 95.84 132.35
  L 108.80 132.06
  Q 109.40 132.04 109.41 131.44
  L 109.46 110.64
  Q 111.13 109.68 110.71 106.95
  A 0.59 0.59 0.0 0 1 111.21 106.27
  Q 113.95 105.86 116.72 105.63
  C 122.36 105.16 120.15 99.15 120.58 95.76
  Q 120.97 92.75 121.00 95.78
  Q 121.02 98.13 120.97 101.50
  Q 120.95 102.90 122.54 103.31
  Q 122.15 104.70 123.32 104.63
  Q 127.53 104.37 131.31 104.54
  A 0.73 0.72 1.7 0 1 132.00 105.26
  L 132.00 131.49
  Q 132.00 131.99 132.50 132.00
  L 144.76 132.12
  L 145.07 132.18
  Q 145.80 132.34 145.81 131.58
  L 146.04 106.65
  A 0.68 0.66 -1.9 0 1 146.66 106.00
  L 153.23 105.54
  A 1.96 1.95 -1.7 0 0 155.06 103.60
  L 155.13 93.29
  Q 155.13 92.47 154.38 92.80
  Q 154.01 92.96 153.86 93.51
  Q 153.81 93.34 153.74 93.19
  Q 153.54 92.82 153.12 92.82
  L 127.38 92.93
  Q 128.20 90.40 123.92 92.18
  C 121.39 93.24 117.98 91.26 115.17 91.34
  C 111.21 91.47 107.36 91.76 103.27 91.49
  Q 97.21 91.10 91.16 91.48
  Q 90.76 91.50 90.55 91.71
  Q 90.31 91.94 90.27 92.21
  A 0.51 0.51 0.0 0 0 90.77 92.80
  L 104.01 92.90
  Z
  M 188.79 92.75
  L 158.66 93.01
  Q 158.10 93.01 158.10 93.58
  L 158.14 104.65
  Q 157.17 105.30 158.76 105.67
  C 160.83 106.15 163.00 105.72 165.35 106.38
  Q 165.83 106.52 165.84 107.01
  Q 166.24 122.00 165.96 130.25
  C 165.82 134.51 174.76 134.53 177.39 133.79
  A 0.78 0.78 0.0 0 0 177.20 132.25
  L 174.71 132.20
  Q 176.90 131.70 178.97 132.13
  Q 179.45 132.23 179.73 131.83
  Q 179.96 131.50 180.02 131.01
  Q 180.73 131.11 180.76 130.24
  Q 181.16 119.59 180.63 107.80
  A 1.89 1.89 0.0 0 1 182.47 105.82
  L 188.32 105.65
  A 1.72 1.72 0.0 0 0 189.99 103.93
  L 190.00 93.50
  Q 190.00 92.99 189.58 92.70
  Q 188.64 92.07 188.79 92.75
  Z"
/>
<path fill="#020302" d="
  M 48.92 132.20
  L 48.84 93.45
  Q 48.84 92.83 48.22 92.81
  L 38.95 92.64
  Q 40.83 90.71 44.17 90.85
  C 47.36 90.99 49.99 90.89 50.00 94.81
  Q 50.04 112.64 49.99 130.47
  Q 49.99 131.05 49.84 131.51
  Q 49.36 133.01 48.92 132.20
  Z"
/>
<path fill="#020302" d="
  M 127.38 92.93
  L 123.18 92.83
  Q 122.57 92.82 122.57 93.42
  L 122.54 103.31
  Q 120.95 102.90 120.97 101.50
  Q 121.02 98.13 121.00 95.78
  Q 120.97 92.75 120.58 95.76
  C 120.15 99.15 122.36 105.16 116.72 105.63
  Q 113.95 105.86 111.21 106.27
  A 0.59 0.59 0.0 0 0 110.71 106.95
  Q 111.13 109.68 109.46 110.64
  L 109.47 105.06
  Q 109.47 104.50 110.02 104.50
  L 118.25 104.50
  Q 118.75 104.50 118.75 104.00
  L 118.75 93.30
  Q 118.75 92.82 118.27 92.83
  L 104.01 92.90
  L 90.77 92.80
  A 0.51 0.51 0.0 0 1 90.27 92.21
  Q 90.31 91.94 90.55 91.71
  Q 90.76 91.50 91.16 91.48
  Q 97.21 91.10 103.27 91.49
  C 107.36 91.76 111.21 91.47 115.17 91.34
  C 117.98 91.26 121.39 93.24 123.92 92.18
  Q 128.20 90.40 127.38 92.93
  Z"
/>
<path fill="#020302" d="
  M 180.02 131.01
  L 180.02 105.08
  Q 180.02 104.55 180.54 104.55
  L 188.54 104.55
  Q 188.92 104.55 188.92 104.17
  L 188.79 92.75
  Q 188.64 92.07 189.58 92.70
  Q 190.00 92.99 190.00 93.50
  L 189.99 103.93
  A 1.72 1.72 0.0 0 1 188.32 105.65
  L 182.47 105.82
  A 1.89 1.89 0.0 0 0 180.63 107.80
  Q 181.16 119.59 180.76 130.24
  Q 180.73 131.11 180.02 131.01
  Z"
/>
<path fill="#020302" d="
  M 35.48 92.46
  Q 37.00 112.29 36.01 132.25
  Q 35.89 132.39 35.45 132.09
  Q 35.08 131.83 35.06 131.37
  Q 34.32 112.17 35.48 92.46
  Z"
/>
<path fill="#ffffff" d="
  M 35.48 92.46
  Q 38.62 93.07 38.95 92.64
  L 48.22 92.81
  Q 48.84 92.83 48.84 93.45
  L 48.92 132.20
  L 36.01 132.25
  Q 37.00 112.29 35.48 92.46
  Z"
/>
<path fill="#020302" d="
  M 54.51 93.21
  L 54.74 131.50
  Q 54.33 132.19 53.54 131.99
  A 0.41 0.41 0.0 0 1 53.23 131.59
  L 53.25 93.51
  Q 53.25 93.15 53.59 93.04
  Q 54.61 92.72 54.51 93.21
  Z"
/>
<path fill="#ffffff" d="
  M 83.30 93.54
  L 83.41 103.95
  Q 82.90 105.03 82.75 104.60
  L 68.06 104.64
  Q 67.50 104.65 67.50 105.21
  L 67.50 107.97
  Q 67.50 108.53 68.06 108.53
  L 77.23 108.50
  Q 77.39 108.47 77.53 108.47
  A 0.76 0.76 0.0 0 1 78.25 109.23
  L 78.25 121.00
  Q 78.25 121.50 77.75 121.50
  L 68.00 121.50
  Q 67.50 121.50 67.50 122.00
  L 67.50 131.27
  A 0.83 0.83 0.0 0 1 66.61 132.10
  Q 61.56 131.75 56.26 132.31
  Q 54.70 132.47 54.74 131.50
  L 54.51 93.21
  Q 54.64 93.29 54.73 93.08
  Q 54.77 92.97 54.89 92.97
  L 82.85 92.86
  Q 83.24 92.86 83.29 93.24
  Q 83.31 93.38 83.30 93.54
  Z"
/>
<path fill="#ffffff" d="
  M 104.01 92.90
  L 118.27 92.83
  Q 118.75 92.82 118.75 93.30
  L 118.75 104.00
  Q 118.75 104.50 118.25 104.50
  L 110.02 104.50
  Q 109.47 104.50 109.47 105.06
  L 109.46 110.64
  L 109.41 131.44
  Q 109.40 132.04 108.80 132.06
  L 95.84 132.35
  Q 97.01 118.24 96.35 104.85
  Q 96.33 104.45 95.92 104.45
  L 87.78 104.61
  A 0.53 0.53 0.0 0 1 87.24 104.10
  L 86.93 92.80
  L 104.01 92.90
  Z"
/>
<path fill="#ffffff" d="
  M 127.38 92.93
  L 153.12 92.82
  Q 153.54 92.82 153.74 93.19
  Q 153.81 93.34 153.86 93.51
  L 153.90 104.02
  A 0.54 0.54 0.0 0 1 153.36 104.56
  L 145.30 104.56
  Q 144.76 104.56 144.76 105.10
  L 144.76 132.12
  L 132.50 132.00
  Q 132.00 131.99 132.00 131.49
  L 132.00 105.26
  A 0.73 0.72 1.7 0 0 131.31 104.54
  Q 127.53 104.37 123.32 104.63
  Q 122.15 104.70 122.54 103.31
  L 122.57 93.42
  Q 122.57 92.82 123.18 92.83
  L 127.38 92.93
  Z"
/>
<path fill="#020302" d="
  M 144.76 132.12
  L 144.76 105.10
  Q 144.76 104.56 145.30 104.56
  L 153.36 104.56
  A 0.54 0.54 0.0 0 0 153.90 104.02
  L 153.86 93.51
  Q 154.01 92.96 154.38 92.80
  Q 155.13 92.47 155.13 93.29
  L 155.06 103.60
  A 1.96 1.95 -1.7 0 1 153.23 105.54
  L 146.66 106.00
  A 0.68 0.66 -1.9 0 0 146.04 106.65
  L 145.81 131.58
  Q 145.80 132.34 145.07 132.18
  L 144.76 132.12
  Z"
/>
<path fill="#ffffff" d="
  M 188.79 92.75
  L 188.92 104.17
  Q 188.92 104.55 188.54 104.55
  L 180.54 104.55
  Q 180.02 104.55 180.02 105.08
  L 180.02 131.01
  Q 179.96 131.50 179.73 131.83
  Q 179.45 132.23 178.97 132.13
  Q 176.90 131.70 174.71 132.20
  L 167.95 132.24
  A 0.70 0.69 0.0 0 1 167.25 131.55
  L 167.25 105.22
  Q 167.25 104.61 166.64 104.61
  L 158.14 104.65
  L 158.10 93.58
  Q 158.10 93.01 158.66 93.01
  L 188.79 92.75
  Z"
/>
<path fill="#020302" d="
  M 86.93 92.80
  L 87.24 104.10
  A 0.53 0.53 0.0 0 0 87.78 104.61
  L 95.92 104.45
  Q 96.33 104.45 96.35 104.85
  Q 97.01 118.24 95.84 132.35
  Q 94.72 119.40 95.27 106.96
  Q 95.30 106.25 94.59 106.18
  L 87.26 105.43
  Q 86.83 105.39 86.63 105.00
  L 85.84 103.44
  A 0.48 0.47 52.1 0 0 85.06 103.34
  Q 84.32 104.19 83.41 103.95
  L 83.30 93.54
  Q 84.18 93.01 84.71 93.55
  Q 85.08 93.92 85.05 94.45
  Q 84.80 97.92 85.33 101.32
  Q 85.37 101.56 85.46 101.71
  Q 85.80 102.23 85.71 101.57
  Q 84.94 96.33 86.93 92.80
  Z"
/>
<path fill="#020302" d="
  M 82.75 104.60
  L 82.74 105.24
  Q 82.73 105.94 82.02 105.97
  L 69.31 106.62
  Q 69.21 106.63 69.22 106.67
  Q 69.27 106.80 69.31 106.92
  Q 69.34 107.01 69.42 107.00
  Q 72.68 106.95 75.93 107.12
  Q 77.59 107.21 77.23 108.50
  L 68.06 108.53
  Q 67.50 108.53 67.50 107.97
  L 67.50 105.21
  Q 67.50 104.65 68.06 104.64
  L 82.75 104.60
  Z"
/>
<path fill="#020302" d="
  M 174.71 132.20
  L 177.20 132.25
  A 0.78 0.78 0.0 0 1 177.39 133.79
  C 174.76 134.53 165.82 134.51 165.96 130.25
  Q 166.24 122.00 165.84 107.01
  Q 165.83 106.52 165.35 106.38
  C 163.00 105.72 160.83 106.15 158.76 105.67
  Q 157.17 105.30 158.14 104.65
  L 166.64 104.61
  Q 167.25 104.61 167.25 105.22
  L 167.25 131.55
  A 0.70 0.69 0.0 0 0 167.95 132.24
  L 174.71 132.20
  Z"
/>
</svg>
