<?xml version="1.0" encoding="UTF-8" standalone="no"?>
<!DOCTYPE svg PUBLIC "-//W3C//DTD SVG 1.1//EN" "http://www.w3.org/Graphics/SVG/1.1/DTD/svg11.dtd">
<svg xmlns="http://www.w3.org/2000/svg" version="1.1" viewBox="0.00 0.00 1383.00 1515.00">
<g stroke-width="2.00" fill="none" stroke-linecap="butt">
<path stroke="#3b78a8" stroke-opacity="0.529" vector-effect="non-scaling-stroke" d="
  M 677.03 0.00
  L 681.25 0.22"
/>
<path stroke="#3c7cae" vector-effect="non-scaling-stroke" d="
  M 814.49 11.01
  L 815.25 11.51
  Q 815.46 11.65 815.22 11.69
  L 813.76 11.98
  A 0.15 0.15 0.0 0 1 813.69 11.69
  Q 814.32 11.49 812.58 11.34
  A 0.71 0.70 -77.9 0 0 811.85 11.82
  C 810.56 15.61 809.37 17.10 806.58 19.91
  C 800.41 26.15 795.65 33.29 789.52 39.87
  C 783.44 46.40 778.37 53.59 772.27 60.15
  C 766.63 66.21 762.09 73.01 756.25 78.93
  C 751.22 84.04 746.93 90.07 742.35 95.62
  Q 741.27 96.92 739.01 96.45
  Q 738.51 96.35 738.11 96.66
  C 735.31 98.84 733.62 101.90 731.42 104.15
  C 726.74 108.93 722.84 114.57 718.45 119.25
  Q 712.17 125.95 706.66 133.32
  C 703.27 137.86 699.02 141.23 695.59 145.85
  Q 690.47 152.73 684.62 158.99
  C 678.64 165.39 673.71 172.44 667.77 178.83
  C 661.78 185.28 656.81 192.30 650.88 198.72
  Q 646.45 203.53 642.47 208.56
  C 637.39 214.99 631.53 220.79 626.64 227.18
  C 622.89 232.08 619.45 234.79 617.15 237.87
  C 614.89 240.90 612.26 243.58 609.95 246.60
  Q 607.11 250.32 604.28 253.22
  C 598.16 259.51 593.27 266.59 587.59 272.86
  C 580.06 281.17 573.75 289.73 566.16 297.66
  Q 564.50 299.39 563.69 301.29
  A 0.87 0.87 0.0 0 0 564.49 302.50
  L 565.31 302.50
  Q 566.12 302.50 565.34 302.69
  Q 564.24 302.97 563.13 303.05
  Q 563.06 303.06 563.06 303.11
  Q 563.06 303.14 563.06 303.18
  A 0.13 0.11 2.8 0 0 563.18 303.29
  L 576.25 303.49"
/>
<path stroke="#ffe25d" vector-effect="non-scaling-stroke" d="
  M 1290.59 443.92
  Q 1289.81 445.04 1288.54 445.12
  Q 1288.04 445.16 1287.71 445.54
  C 1286.51 446.93 1285.49 448.11 1283.76 449.05
  C 1280.85 450.64 1278.47 453.10 1275.84 454.67
  Q 1269.87 458.21 1264.56 462.68
  C 1262.84 464.13 1260.76 464.91 1258.96 466.44
  C 1254.47 470.25 1248.65 473.48 1245.43 476.19
  C 1242.77 478.44 1239.93 479.88 1237.68 481.78
  Q 1233.25 485.51 1228.21 488.40
  C 1227.30 488.92 1226.60 490.01 1225.93 490.42
  C 1221.13 493.37 1216.52 497.25 1212.88 499.71
  Q 1207.68 503.22 1199.96 508.71
  C 1198.50 509.74 1197.59 511.04 1196.12 511.82
  Q 1193.52 513.20 1190.51 515.52
  C 1185.88 519.09 1180.27 522.36 1175.27 526.30
  C 1172.69 528.33 1169.53 529.34 1167.32 531.83
  Q 1166.43 532.84 1165.49 533.47
  Q 1155.68 540.09 1146.28 547.29
  C 1144.32 548.79 1141.87 549.97 1139.77 551.63
  C 1133.84 556.30 1127.52 560.47 1121.30 564.74
  C 1119.46 566.00 1117.59 567.89 1115.42 569.20
  C 1109.88 572.56 1104.96 576.70 1099.46 580.17
  C 1097.82 581.21 1096.58 582.77 1094.85 583.86
  C 1088.21 588.02 1081.93 592.96 1075.46 597.42
  Q 1070.53 600.80 1065.87 604.55
  C 1064.01 606.04 1061.70 606.95 1059.74 608.61
  Q 1056.57 611.28 1055.47 611.99
  C 1050.48 615.18 1045.78 619.26 1040.51 622.32
  C 1038.95 623.22 1037.98 624.69 1036.75 625.50
  C 1026.87 631.96 1017.41 639.11 1007.73 645.79
  Q 1001.73 649.93 995.89 654.31
  C 990.64 658.25 984.49 662.30 978.99 666.57
  C 976.12 668.80 972.80 670.61 969.77 672.89
  C 950.08 687.74 931.80 699.69 920.44 708.19
  Q 918.06 709.97 916.55 710.99
  C 912.62 713.63 909.25 716.57 905.34 718.91
  Q 901.67 721.10 898.45 723.91
  C 895.86 726.17 892.94 727.52 890.21 729.61
  C 884.64 733.88 878.90 737.86 873.14 741.86
  C 870.88 743.42 868.18 745.79 865.55 747.47
  Q 862.22 749.60 859.79 751.54
  C 855.40 755.03 850.43 758.07 846.02 761.43
  C 844.19 762.83 841.88 763.92 839.88 765.49
  Q 836.54 768.11 835.50 768.79
  C 827.23 774.24 819.48 780.40 811.35 786.03
  C 802.74 791.99 794.48 798.58 785.79 804.40
  Q 776.15 810.85 766.87 817.83
  C 764.86 819.34 762.31 820.55 760.20 822.23
  C 753.86 827.32 746.98 831.69 740.21 836.20
  A 1.31 1.25 -11.6 0 0 739.67 836.98
  Q 739.47 837.79 738.77 838.13
  C 733.36 840.79 727.85 845.71 722.71 849.15
  C 721.15 850.20 719.80 851.83 718.06 852.86
  C 712.64 856.08 707.74 860.10 702.47 863.59
  Q 702.22 863.76 698.65 866.61
  C 695.90 868.80 692.67 870.12 689.67 872.72
  C 686.20 875.74 682.33 877.79 678.79 880.66
  C 675.78 883.09 672.30 884.92 669.23 887.44
  C 666.77 889.46 663.95 890.64 661.45 892.68
  Q 657.80 895.67 656.09 896.74
  C 650.96 899.96 647.20 903.82 642.50 906.32
  C 640.68 907.28 639.61 908.99 637.81 910.10
  Q 631.14 914.17 625.09 919.10
  C 623.49 920.41 621.70 920.88 620.03 922.37
  Q 618.38 923.83 615.20 925.96
  Q 608.14 930.69 589.13 944.63
  Q 588.06 945.41 585.54 947.00
  C 582.45 948.95 579.78 951.39 576.80 953.20
  Q 571.41 956.48 566.68 960.67
  C 565.23 961.95 563.06 962.66 561.39 964.15
  C 557.38 967.72 552.46 970.54 548.44 973.51
  Q 545.24 975.86 541.83 977.90
  C 540.40 978.75 539.46 980.06 538.06 981.06
  Q 531.76 985.57 525.37 989.97
  C 522.97 991.62 519.59 994.52 515.96 996.43
  Q 514.57 997.16 514.44 998.83
  Q 514.41 999.25 513.99 999.25
  L 513.02 999.25
  A 1.33 1.29 25.5 0 0 512.22 999.52
  Q 507.81 1002.91 503.10 1005.88
  C 501.15 1007.11 499.57 1009.03 497.36 1010.24
  C 489.92 1014.27 483.65 1020.75 476.50 1025.18
  C 472.26 1027.81 468.94 1030.75 464.77 1033.09
  C 463.11 1034.03 462.03 1035.51 460.38 1036.60
  Q 454.54 1040.47 448.93 1044.67
  Q 445.15 1047.49 443.03 1048.50
  Q 442.58 1048.72 442.26 1049.10
  C 440.36 1051.34 437.26 1052.64 435.54 1053.99
  Q 429.43 1058.81 422.87 1063.03
  C 421.06 1064.20 419.59 1066.00 417.55 1067.19
  C 412.05 1070.40 407.32 1074.51 401.73 1077.69
  Q 400.64 1078.31 399.49 1079.56
  C 397.85 1081.35 394.79 1082.99 393.61 1083.94
  C 389.23 1087.43 384.14 1090.56 380.04 1093.66
  Q 374.63 1097.74 369.06 1101.59
  C 362.36 1106.23 354.95 1111.94 347.58 1116.70
  Q 347.00 1117.08 347.00 1117.77
  L 347.00 1122.51
  A 0.13 0.13 0.0 0 1 346.76 1122.59
  Q 346.64 1122.43 346.64 1122.25
  Q 346.54 1118.83 346.29 1115.40
  C 346.20 1114.15 346.56 1112.64 345.72 1111.30
  Q 345.45 1110.87 345.45 1110.36
  L 345.32 1041.99"
/>
<path stroke="#3676a7" vector-effect="non-scaling-stroke" d="
  M 949.28 77.59
  Q 949.01 77.97 948.34 77.84
  Q 947.95 77.77 947.79 77.40
  Q 947.71 77.22 947.66 77.03
  Q 947.47 76.36 947.50 77.00
  Q 947.50 77.15 947.51 77.31
  Q 947.53 77.70 947.19 77.50
  L 946.81 77.27
  A 0.23 0.23 0.0 0 0 946.50 77.60
  C 947.06 78.47 947.17 79.19 946.49 80.08
  Q 939.96 88.53 932.89 96.52
  Q 932.50 96.96 932.50 97.54
  L 932.50 98.51
  A 1.45 1.42 65.5 0 1 932.16 99.44
  L 772.01 287.44
  Q 771.75 287.74 771.75 288.14
  L 771.75 289.51
  Q 771.75 290.08 771.19 290.01
  C 770.15 289.87 769.72 290.01 769.03 290.82
  Q 740.58 324.23 711.97 357.50
  Q 705.58 364.92 699.46 372.55
  C 695.61 377.35 691.11 382.05 687.04 386.93
  C 672.58 404.29 657.95 421.65 643.10 438.67
  C 637.84 444.69 631.67 452.36 625.71 459.00
  C 620.11 465.22 614.82 472.30 609.01 478.71
  C 602.80 485.55 597.24 493.11 590.84 499.94
  C 586.72 504.33 583.17 509.33 579.12 513.88
  Q 578.73 514.31 578.75 514.90
  Q 578.78 515.57 578.21 515.58
  Q 577.68 515.59 577.33 515.98
  Q 568.95 525.32 560.85 534.88
  Q 540.16 559.30 519.45 583.70
  C 513.94 590.19 509.52 594.91 505.15 600.49
  C 498.90 608.44 491.78 616.04 487.29 621.54
  Q 485.06 624.27 478.99 631.15
  C 474.68 636.04 469.30 642.95 464.02 648.52
  Q 462.59 650.02 458.87 655.62
  Q 458.67 655.93 458.98 656.14
  Q 459.45 656.45 459.23 657.47"
/>
<path stroke="#3676a7" vector-effect="non-scaling-stroke" d="
  M 307.20 823.01
  Q 306.91 822.48 306.92 822.24
  Q 306.96 820.56 306.67 822.19
  Q 305.94 826.43 305.48 830.75
  Q 305.42 831.29 305.17 830.81
  L 304.83 830.19
  Q 304.48 829.53 304.23 830.24
  Q 303.46 832.39 304.77 834.06
  A 0.07 0.07 0.0 0 1 304.74 834.17
  Q 304.62 834.21 304.50 834.25
  Q 304.09 834.36 304.51 834.50
  Q 305.04 834.68 304.51 835.39
  A 0.60 0.58 8.1 0 1 304.22 835.60
  Q 302.96 836.02 303.25 837.41
  Q 303.38 838.00 302.78 838.00
  L 301.27 838.00
  Q 300.77 838.00 300.44 838.38
  Q 273.96 869.66 247.25 900.75
  C 243.24 905.42 238.27 911.71 233.54 917.03
  C 227.09 924.30 221.24 931.80 214.83 938.98
  C 207.63 947.04 201.03 955.64 193.53 963.54
  Q 192.61 964.51 192.77 966.45
  Q 192.81 967.00 192.26 967.00
  L 191.34 967.00
  Q 190.80 967.00 190.44 967.42
  L 167.61 994.44
  Q 167.08 995.07 167.75 995.55
  L 168.71 996.25
  Q 169.08 996.51 168.70 996.76
  Q 168.27 997.05 167.76 997.10"
/>
<path stroke="#3c7cae" vector-effect="non-scaling-stroke" d="
  M 59.40 925.00
  L 59.87 924.85
  Q 60.39 924.67 60.35 924.12
  C 60.26 922.74 60.26 921.43 61.07 920.20
  C 65.27 913.77 70.79 908.74 75.23 902.86
  Q 79.89 896.69 85.20 891.08
  C 89.97 886.05 93.53 881.24 97.57 876.09
  C 99.15 874.08 100.40 871.61 103.00 869.97
  Q 104.68 868.91 105.51 867.76
  Q 109.65 862.06 114.37 856.84
  C 115.57 855.51 115.98 853.82 117.50 852.23
  Q 120.71 848.86 125.17 842.81
  C 126.25 841.36 128.11 840.71 128.60 838.53
  Q 128.72 838.00 129.26 838.00
  L 130.10 838.00
  A 1.12 1.10 19.7 0 0 130.95 837.61
  L 145.17 820.91
  Q 145.45 820.57 145.49 820.13
  Q 145.53 819.79 145.78 819.53
  Q 152.17 813.08 157.89 806.01
  Q 158.09 805.75 157.77 805.75
  Q 157.61 805.75 157.45 805.77
  Q 157.33 805.78 157.41 805.70
  L 179.20 781.18
  Q 179.54 780.81 179.50 780.30
  Q 179.45 779.76 179.74 779.49
  C 187.08 772.66 191.90 765.43 198.19 758.38
  Q 203.97 751.90 208.70 746.08
  Q 212.49 741.42 216.51 736.98
  C 222.86 729.96 228.47 722.53 234.82 715.58
  C 238.71 711.32 242.51 705.98 246.80 701.51
  C 253.31 694.74 258.47 687.24 264.83 680.43
  C 271.12 673.71 276.04 666.85 282.77 659.37
  C 287.96 653.59 292.80 646.72 298.45 640.79
  C 303.83 635.15 309.13 627.90 313.23 623.46
  Q 318.61 617.64 321.19 614.15
  Q 321.50 613.73 321.50 613.22
  L 321.50 612.75
  Q 321.50 612.26 321.99 612.25
  Q 322.18 612.25 322.36 612.22
  Q 322.84 612.15 323.16 611.77
  Q 325.80 608.57 331.21 602.71
  C 339.25 594.01 345.91 582.91 354.60 574.13
  Q 364.88 563.75 373.90 552.26
  C 377.93 547.13 383.43 541.75 387.97 535.73
  Q 391.36 531.24 396.69 525.49
  C 401.78 519.98 406.35 514.19 411.56 508.31
  Q 417.68 501.42 427.00 489.83
  C 427.79 488.84 429.14 488.26 429.83 487.33
  Q 434.28 481.27 439.35 475.73
  Q 439.52 475.55 439.49 475.30
  Q 439.48 475.17 439.50 475.03
  Q 439.53 474.82 439.73 474.62
  Q 447.31 467.23 453.59 458.72
  C 454.57 457.39 456.56 456.13 457.29 454.01
  Q 458.02 451.86 460.10 451.10
  A 1.78 1.74 10.5 0 0 460.80 450.63
  Q 465.15 445.93 468.92 440.74
  C 470.04 439.20 471.69 437.96 472.83 436.34
  Q 474.61 433.83 475.50 432.92
  Q 481.97 426.26 487.54 418.82
  Q 488.17 417.97 489.77 416.52
  C 491.24 415.19 491.88 413.38 493.40 412.15
  Q 494.52 411.25 495.19 410.43
  Q 504.38 399.04 514.11 388.12
  Q 514.64 387.54 514.50 386.73
  Q 514.41 386.21 514.78 385.85
  Q 526.08 374.79 535.93 362.43
  C 537.44 360.54 538.75 357.53 540.99 355.61
  C 544.52 352.58 546.08 350.72 548.56 347.65
  Q 548.79 347.35 548.76 346.98
  L 548.71 346.32
  Q 548.66 345.75 549.24 345.75
  L 550.30 345.75
  Q 550.53 345.75 550.36 345.59
  Q 550.22 345.46 549.99 345.44
  Q 549.63 345.42 549.97 345.29
  Q 550.08 345.25 550.25 345.25
  Q 561.06 345.26 571.88 345.24
  Q 571.94 345.24 571.94 345.19
  Q 571.94 345.16 571.94 345.13
  Q 571.94 345.01 571.82 345.01
  Q 559.59 345.00 547.36 344.99
  Q 547.31 344.99 547.31 344.94
  Q 547.31 344.91 547.31 344.88
  Q 547.31 344.79 547.41 344.79
  Q 548.25 344.85 548.50 344.51"
/>
<path stroke="#306e9e" vector-effect="non-scaling-stroke" d="
  M 989.60 179.41
  Q 988.56 202.22 989.12 224.94
  Q 989.13 225.56 988.51 225.51
  C 983.45 225.15 981.57 230.53 978.71 233.55
  C 970.56 242.15 963.25 251.80 955.41 260.73
  C 951.35 265.35 946.01 272.35 940.73 277.73
  Q 938.52 279.98 932.78 287.72
  Q 932.50 288.09 932.50 288.56
  L 932.50 289.50
  Q 932.50 290.00 932.00 290.00
  L 931.32 290.00
  Q 930.90 290.00 930.62 290.30
  C 925.69 295.55 919.87 301.28 915.67 307.40
  Q 912.19 312.48 906.20 318.00
  C 905.29 318.84 904.75 320.26 903.82 321.32
  Q 893.95 332.66 878.97 350.48
  Q 878.31 351.28 876.76 352.72
  C 874.90 354.46 872.98 357.44 872.00 358.59
  Q 851.60 382.53 831.24 406.50
  Q 826.95 411.56 823.75 414.69
  Q 823.50 414.94 823.53 415.29
  Q 823.55 415.54 823.43 415.68
  Q 806.05 435.83 788.92 456.20
  C 783.95 462.12 778.14 468.03 772.82 474.07
  Q 771.96 475.05 771.68 476.09
  Q 771.56 476.53 771.26 476.88
  L 739.67 513.85
  Q 739.49 514.06 739.50 514.34
  Q 739.51 514.54 739.49 514.75
  Q 739.44 515.20 739.06 515.46
  C 735.89 517.61 733.88 520.90 731.95 523.12
  Q 727.05 528.75 722.10 534.32
  C 713.63 543.87 707.09 552.47 699.26 561.23
  C 693.21 568.00 686.71 576.06 681.62 581.96
  Q 665.37 600.81 649.41 619.93
  C 647.53 622.18 644.58 624.77 642.34 627.82
  C 638.99 632.38 633.32 639.43 627.38 644.92
  C 625.61 646.56 623.52 649.19 622.00 651.09
  Q 621.83 651.31 622.10 651.31
  L 654.75 651.47"
/>
<path stroke="#3b78a8" stroke-opacity="0.529" vector-effect="non-scaling-stroke" d="
  M 0.19 685.26
  L 0.00 679.41"
/>
<path stroke="#3b78a8" stroke-opacity="0.529" vector-effect="non-scaling-stroke" d="
  M 0.00 664.22
  L 0.14 658.48"
/>
</g>
<path fill="#3e7fb1" d="
  M 652.82 0.00
  L 677.03 0.00
  L 681.25 0.22
  Q 748.26 1.17 814.49 11.01
  L 815.25 11.51
  Q 815.46 11.65 815.22 11.69
  L 813.76 11.98
  A 0.15 0.15 0.0 0 1 813.69 11.69
  Q 814.32 11.49 812.58 11.34
  A 0.71 0.70 -77.9 0 0 811.85 11.82
  C 810.56 15.61 809.37 17.10 806.58 19.91
  C 800.41 26.15 795.65 33.29 789.52 39.87
  C 783.44 46.40 778.37 53.59 772.27 60.15
  C 766.63 66.21 762.09 73.01 756.25 78.93
  C 751.22 84.04 746.93 90.07 742.35 95.62
  Q 741.27 96.92 739.01 96.45
  Q 738.51 96.35 738.11 96.66
  C 735.31 98.84 733.62 101.90 731.42 104.15
  C 726.74 108.93 722.84 114.57 718.45 119.25
  Q 712.17 125.95 706.66 133.32
  C 703.27 137.86 699.02 141.23 695.59 145.85
  Q 690.47 152.73 684.62 158.99
  C 678.64 165.39 673.71 172.44 667.77 178.83
  C 661.78 185.28 656.81 192.30 650.88 198.72
  Q 646.45 203.53 642.47 208.56
  C 637.39 214.99 631.53 220.79 626.64 227.18
  C 622.89 232.08 619.45 234.79 617.15 237.87
  C 614.89 240.90 612.26 243.58 609.95 246.60
  Q 607.11 250.32 604.28 253.22
  C 598.16 259.51 593.27 266.59 587.59 272.86
  C 580.06 281.17 573.75 289.73 566.16 297.66
  Q 564.50 299.39 563.69 301.29
  A 0.87 0.87 0.0 0 0 564.49 302.50
  L 565.31 302.50
  Q 566.12 302.50 565.34 302.69
  Q 564.24 302.97 563.13 303.05
  Q 563.06 303.06 563.06 303.11
  Q 563.06 303.14 563.06 303.18
  A 0.13 0.11 2.8 0 0 563.18 303.29
  L 576.25 303.49
  L 345.78 303.49
  A 0.53 0.52 -0.0 0 1 345.25 302.97
  Q 345.24 237.84 345.26 172.50
  C 345.27 122.77 356.71 75.80 401.80 48.02
  C 437.19 26.21 480.77 16.96 521.27 10.82
  Q 586.64 0.91 652.82 0.00
  Z
  M 486.2743 221.6796
  A 61.38 60.46 89.8 0 0 546.5196 160.0890
  A 61.38 60.46 89.8 0 0 485.8457 98.9204
  A 61.38 60.46 89.8 0 0 425.6004 160.5110
  A 61.38 60.46 89.8 0 0 486.2743 221.6796
  Z"
/>
<path fill="#080808" fill-opacity="0.059" d="
  M 677.03 0.00
  L 681.31 0.00
  Q 681.28 0.11 681.25 0.22
  L 677.03 0.00
  Z"
/>
<path fill="#3979ab" d="
  M 814.49 11.01
  C 866.36 18.20 913.85 37.96 949.28 77.59
  Q 949.01 77.97 948.34 77.84
  Q 947.95 77.77 947.79 77.40
  Q 947.71 77.22 947.66 77.03
  Q 947.47 76.36 947.50 77.00
  Q 947.50 77.15 947.51 77.31
  Q 947.53 77.70 947.19 77.50
  L 946.81 77.27
  A 0.23 0.23 0.0 0 0 946.50 77.60
  C 947.06 78.47 947.17 79.19 946.49 80.08
  Q 939.96 88.53 932.89 96.52
  Q 932.50 96.96 932.50 97.54
  L 932.50 98.51
  A 1.45 1.42 65.5 0 1 932.16 99.44
  L 772.01 287.44
  Q 771.75 287.74 771.75 288.14
  L 771.75 289.51
  Q 771.75 290.08 771.19 290.01
  C 770.15 289.87 769.72 290.01 769.03 290.82
  Q 740.58 324.23 711.97 357.50
  Q 705.58 364.92 699.46 372.55
  C 695.61 377.35 691.11 382.05 687.04 386.93
  C 672.58 404.29 657.95 421.65 643.10 438.67
  C 637.84 444.69 631.67 452.36 625.71 459.00
  C 620.11 465.22 614.82 472.30 609.01 478.71
  C 602.80 485.55 597.24 493.11 590.84 499.94
  C 586.72 504.33 583.17 509.33 579.12 513.88
  Q 578.73 514.31 578.75 514.90
  Q 578.78 515.57 578.21 515.58
  Q 577.68 515.59 577.33 515.98
  Q 568.95 525.32 560.85 534.88
  Q 540.16 559.30 519.45 583.70
  C 513.94 590.19 509.52 594.91 505.15 600.49
  C 498.90 608.44 491.78 616.04 487.29 621.54
  Q 485.06 624.27 478.99 631.15
  C 474.68 636.04 469.30 642.95 464.02 648.52
  Q 462.59 650.02 458.87 655.62
  Q 458.67 655.93 458.98 656.14
  Q 459.45 656.45 459.23 657.47
  C 381.41 677.70 320.06 743.09 307.20 823.01
  Q 306.91 822.48 306.92 822.24
  Q 306.96 820.56 306.67 822.19
  Q 305.94 826.43 305.48 830.75
  Q 305.42 831.29 305.17 830.81
  L 304.83 830.19
  Q 304.48 829.53 304.23 830.24
  Q 303.46 832.39 304.77 834.06
  A 0.07 0.07 0.0 0 1 304.74 834.17
  Q 304.62 834.21 304.50 834.25
  Q 304.09 834.36 304.51 834.50
  Q 305.04 834.68 304.51 835.39
  A 0.60 0.58 8.1 0 1 304.22 835.60
  Q 302.96 836.02 303.25 837.41
  Q 303.38 838.00 302.78 838.00
  L 301.27 838.00
  Q 300.77 838.00 300.44 838.38
  Q 273.96 869.66 247.25 900.75
  C 243.24 905.42 238.27 911.71 233.54 917.03
  C 227.09 924.30 221.24 931.80 214.83 938.98
  C 207.63 947.04 201.03 955.64 193.53 963.54
  Q 192.61 964.51 192.77 966.45
  Q 192.81 967.00 192.26 967.00
  L 191.34 967.00
  Q 190.80 967.00 190.44 967.42
  L 167.61 994.44
  Q 167.08 995.07 167.75 995.55
  L 168.71 996.25
  Q 169.08 996.51 168.70 996.76
  Q 168.27 997.05 167.76 997.10
  C 121.56 990.32 84.55 963.70 59.40 925.00
  L 59.87 924.85
  Q 60.39 924.67 60.35 924.12
  C 60.26 922.74 60.26 921.43 61.07 920.20
  C 65.27 913.77 70.79 908.74 75.23 902.86
  Q 79.89 896.69 85.20 891.08
  C 89.97 886.05 93.53 881.24 97.57 876.09
  C 99.15 874.08 100.40 871.61 103.00 869.97
  Q 104.68 868.91 105.51 867.76
  Q 109.65 862.06 114.37 856.84
  C 115.57 855.51 115.98 853.82 117.50 852.23
  Q 120.71 848.86 125.17 842.81
  C 126.25 841.36 128.11 840.71 128.60 838.53
  Q 128.72 838.00 129.26 838.00
  L 130.10 838.00
  A 1.12 1.10 19.7 0 0 130.95 837.61
  L 145.17 820.91
  Q 145.45 820.57 145.49 820.13
  Q 145.53 819.79 145.78 819.53
  Q 152.17 813.08 157.89 806.01
  Q 158.09 805.75 157.77 805.75
  Q 157.61 805.75 157.45 805.77
  Q 157.33 805.78 157.41 805.70
  L 179.20 781.18
  Q 179.54 780.81 179.50 780.30
  Q 179.45 779.76 179.74 779.49
  C 187.08 772.66 191.90 765.43 198.19 758.38
  Q 203.97 751.90 208.70 746.08
  Q 212.49 741.42 216.51 736.98
  C 222.86 729.96 228.47 722.53 234.82 715.58
  C 238.71 711.32 242.51 705.98 246.80 701.51
  C 253.31 694.74 258.47 687.24 264.83 680.43
  C 271.12 673.71 276.04 666.85 282.77 659.37
  C 287.96 653.59 292.80 646.72 298.45 640.79
  C 303.83 635.15 309.13 627.90 313.23 623.46
  Q 318.61 617.64 321.19 614.15
  Q 321.50 613.73 321.50 613.22
  L 321.50 612.75
  Q 321.50 612.26 321.99 612.25
  Q 322.18 612.25 322.36 612.22
  Q 322.84 612.15 323.16 611.77
  Q 325.80 608.57 331.21 602.71
  C 339.25 594.01 345.91 582.91 354.60 574.13
  Q 364.88 563.75 373.90 552.26
  C 377.93 547.13 383.43 541.75 387.97 535.73
  Q 391.36 531.24 396.69 525.49
  C 401.78 519.98 406.35 514.19 411.56 508.31
  Q 417.68 501.42 427.00 489.83
  C 427.79 488.84 429.14 488.26 429.83 487.33
  Q 434.28 481.27 439.35 475.73
  Q 439.52 475.55 439.49 475.30
  Q 439.48 475.17 439.50 475.03
  Q 439.53 474.82 439.73 474.62
  Q 447.31 467.23 453.59 458.72
  C 454.57 457.39 456.56 456.13 457.29 454.01
  Q 458.02 451.86 460.10 451.10
  A 1.78 1.74 10.5 0 0 460.80 450.63
  Q 465.15 445.93 468.92 440.74
  C 470.04 439.20 471.69 437.96 472.83 436.34
  Q 474.61 433.83 475.50 432.92
  Q 481.97 426.26 487.54 418.82
  Q 488.17 417.97 489.77 416.52
  C 491.24 415.19 491.88 413.38 493.40 412.15
  Q 494.52 411.25 495.19 410.43
  Q 504.38 399.04 514.11 388.12
  Q 514.64 387.54 514.50 386.73
  Q 514.41 386.21 514.78 385.85
  Q 526.08 374.79 535.93 362.43
  C 537.44 360.54 538.75 357.53 540.99 355.61
  C 544.52 352.58 546.08 350.72 548.56 347.65
  Q 548.79 347.35 548.76 346.98
  L 548.71 346.32
  Q 548.66 345.75 549.24 345.75
  L 550.30 345.75
  Q 550.53 345.75 550.36 345.59
  Q 550.22 345.46 549.99 345.44
  Q 549.63 345.42 549.97 345.29
  Q 550.08 345.25 550.25 345.25
  Q 561.06 345.26 571.88 345.24
  Q 571.94 345.24 571.94 345.19
  Q 571.94 345.16 571.94 345.13
  Q 571.94 345.01 571.82 345.01
  Q 559.59 345.00 547.36 344.99
  Q 547.31 344.99 547.31 344.94
  Q 547.31 344.91 547.31 344.88
  Q 547.31 344.79 547.41 344.79
  Q 548.25 344.85 548.50 344.51
  L 666.99 344.50
  Q 667.50 344.50 667.50 343.99
  L 667.50 304.02
  A 0.53 0.53 0.0 0 0 666.97 303.49
  L 576.25 303.49
  L 563.18 303.29
  A 0.13 0.11 2.8 0 1 563.06 303.18
  Q 563.06 303.14 563.06 303.11
  Q 563.06 303.06 563.13 303.05
  Q 564.24 302.97 565.34 302.69
  Q 566.12 302.50 565.31 302.50
  L 564.49 302.50
  A 0.87 0.87 0.0 0 1 563.69 301.29
  Q 564.50 299.39 566.16 297.66
  C 573.75 289.73 580.06 281.17 587.59 272.86
  C 593.27 266.59 598.16 259.51 604.28 253.22
  Q 607.11 250.32 609.95 246.60
  C 612.26 243.58 614.89 240.90 617.15 237.87
  C 619.45 234.79 622.89 232.08 626.64 227.18
  C 631.53 220.79 637.39 214.99 642.47 208.56
  Q 646.45 203.53 650.88 198.72
  C 656.81 192.30 661.78 185.28 667.77 178.83
  C 673.71 172.44 678.64 165.39 684.62 158.99
  Q 690.47 152.73 695.59 145.85
  C 699.02 141.23 703.27 137.86 706.66 133.32
  Q 712.17 125.95 718.45 119.25
  C 722.84 114.57 726.74 108.93 731.42 104.15
  C 733.62 101.90 735.31 98.84 738.11 96.66
  Q 738.51 96.35 739.01 96.45
  Q 741.27 96.92 742.35 95.62
  C 746.93 90.07 751.22 84.04 756.25 78.93
  C 762.09 73.01 766.63 66.21 772.27 60.15
  C 778.37 53.59 783.44 46.40 789.52 39.87
  C 795.65 33.29 800.41 26.15 806.58 19.91
  C 809.37 17.10 810.56 15.61 811.85 11.82
  A 0.71 0.70 -77.9 0 1 812.58 11.34
  Q 814.32 11.49 813.69 11.69
  A 0.15 0.15 0.0 0 0 813.76 11.98
  L 815.22 11.69
  Q 815.46 11.65 815.25 11.51
  L 814.49 11.01
  Z"
/>
<path fill="#3372a2" d="
  M 949.28 77.59
  C 974.83 106.01 989.10 141.35 989.60 179.41
  Q 988.56 202.22 989.12 224.94
  Q 989.13 225.56 988.51 225.51
  C 983.45 225.15 981.57 230.53 978.71 233.55
  C 970.56 242.15 963.25 251.80 955.41 260.73
  C 951.35 265.35 946.01 272.35 940.73 277.73
  Q 938.52 279.98 932.78 287.72
  Q 932.50 288.09 932.50 288.56
  L 932.50 289.50
  Q 932.50 290.00 932.00 290.00
  L 931.32 290.00
  Q 930.90 290.00 930.62 290.30
  C 925.69 295.55 919.87 301.28 915.67 307.40
  Q 912.19 312.48 906.20 318.00
  C 905.29 318.84 904.75 320.26 903.82 321.32
  Q 893.95 332.66 878.97 350.48
  Q 878.31 351.28 876.76 352.72
  C 874.90 354.46 872.98 357.44 872.00 358.59
  Q 851.60 382.53 831.24 406.50
  Q 826.95 411.56 823.75 414.69
  Q 823.50 414.94 823.53 415.29
  Q 823.55 415.54 823.43 415.68
  Q 806.05 435.83 788.92 456.20
  C 783.95 462.12 778.14 468.03 772.82 474.07
  Q 771.96 475.05 771.68 476.09
  Q 771.56 476.53 771.26 476.88
  L 739.67 513.85
  Q 739.49 514.06 739.50 514.34
  Q 739.51 514.54 739.49 514.75
  Q 739.44 515.20 739.06 515.46
  C 735.89 517.61 733.88 520.90 731.95 523.12
  Q 727.05 528.75 722.10 534.32
  C 713.63 543.87 707.09 552.47 699.26 561.23
  C 693.21 568.00 686.71 576.06 681.62 581.96
  Q 665.37 600.81 649.41 619.93
  C 647.53 622.18 644.58 624.77 642.34 627.82
  C 638.99 632.38 633.32 639.43 627.38 644.92
  C 625.61 646.56 623.52 649.19 622.00 651.09
  Q 621.83 651.31 622.10 651.31
  L 654.75 651.47
  Q 580.00 651.52 505.25 651.50
  Q 483.35 651.49 459.23 657.47
  Q 459.45 656.45 458.98 656.14
  Q 458.67 655.93 458.87 655.62
  Q 462.59 650.02 464.02 648.52
  C 469.30 642.95 474.68 636.04 478.99 631.15
  Q 485.06 624.27 487.29 621.54
  C 491.78 616.04 498.90 608.44 505.15 600.49
  C 509.52 594.91 513.94 590.19 519.45 583.70
  Q 540.16 559.30 560.85 534.88
  Q 568.95 525.32 577.33 515.98
  Q 577.68 515.59 578.21 515.58
  Q 578.78 515.57 578.75 514.90
  Q 578.73 514.31 579.12 513.88
  C 583.17 509.33 586.72 504.33 590.84 499.94
  C 597.24 493.11 602.80 485.55 609.01 478.71
  C 614.82 472.30 620.11 465.22 625.71 459.00
  C 631.67 452.36 637.84 444.69 643.10 438.67
  C 657.95 421.65 672.58 404.29 687.04 386.93
  C 691.11 382.05 695.61 377.35 699.46 372.55
  Q 705.58 364.92 711.97 357.50
  Q 740.58 324.23 769.03 290.82
  C 769.72 290.01 770.15 289.87 771.19 290.01
  Q 771.75 290.08 771.75 289.51
  L 771.75 288.14
  Q 771.75 287.74 772.01 287.44
  L 932.16 99.44
  A 1.45 1.42 65.5 0 0 932.50 98.51
  L 932.50 97.54
  Q 932.50 96.96 932.89 96.52
  Q 939.96 88.53 946.49 80.08
  C 947.17 79.19 947.06 78.47 946.50 77.60
  A 0.23 0.23 0.0 0 1 946.81 77.27
  L 947.19 77.50
  Q 947.53 77.70 947.51 77.31
  Q 947.50 77.15 947.50 77.00
  Q 947.47 76.36 947.66 77.03
  Q 947.71 77.22 947.79 77.40
  Q 947.95 77.77 948.34 77.84
  Q 949.01 77.97 949.28 77.59
  Z"
/>
<path fill="#2d6a9a" d="
  M 989.60 179.41
  Q 989.90 326.29 989.70 473.06
  Q 989.68 490.23 989.57 493.07
  C 986.46 574.39 925.83 642.91 843.66 650.79
  Q 836.70 651.46 823.68 651.47
  Q 739.22 651.55 654.75 651.47
  L 622.10 651.31
  Q 621.83 651.31 622.00 651.09
  C 623.52 649.19 625.61 646.56 627.38 644.92
  C 633.32 639.43 638.99 632.38 642.34 627.82
  C 644.58 624.77 647.53 622.18 649.41 619.93
  Q 665.37 600.81 681.62 581.96
  C 686.71 576.06 693.21 568.00 699.26 561.23
  C 707.09 552.47 713.63 543.87 722.10 534.32
  Q 727.05 528.75 731.95 523.12
  C 733.88 520.90 735.89 517.61 739.06 515.46
  Q 739.44 515.20 739.49 514.75
  Q 739.51 514.54 739.50 514.34
  Q 739.49 514.06 739.67 513.85
  L 771.26 476.88
  Q 771.56 476.53 771.68 476.09
  Q 771.96 475.05 772.82 474.07
  C 778.14 468.03 783.95 462.12 788.92 456.20
  Q 806.05 435.83 823.43 415.68
  Q 823.55 415.54 823.53 415.29
  Q 823.50 414.94 823.75 414.69
  Q 826.95 411.56 831.24 406.50
  Q 851.60 382.53 872.00 358.59
  C 872.98 357.44 874.90 354.46 876.76 352.72
  Q 878.31 351.28 878.97 350.48
  Q 893.95 332.66 903.82 321.32
  C 904.75 320.26 905.29 318.84 906.20 318.00
  Q 912.19 312.48 915.67 307.40
  C 919.87 301.28 925.69 295.55 930.62 290.30
  Q 930.90 290.00 931.32 290.00
  L 932.00 290.00
  Q 932.50 290.00 932.50 289.50
  L 932.50 288.56
  Q 932.50 288.09 932.78 287.72
  Q 938.52 279.98 940.73 277.73
  C 946.01 272.35 951.35 265.35 955.41 260.73
  C 963.25 251.80 970.56 242.15 978.71 233.55
  C 981.57 230.53 983.45 225.15 988.51 225.51
  Q 989.13 225.56 989.12 224.94
  Q 988.56 202.22 989.60 179.41
  Z"
/>
<path fill="#3e7fb1" d="
  M 548.50 344.51
  Q 548.25 344.85 547.41 344.79
  Q 547.31 344.79 547.31 344.88
  Q 547.31 344.91 547.31 344.94
  Q 547.31 344.99 547.36 344.99
  Q 559.59 345.00 571.82 345.01
  Q 571.94 345.01 571.94 345.13
  Q 571.94 345.16 571.94 345.19
  Q 571.94 345.24 571.88 345.24
  Q 561.06 345.26 550.25 345.25
  Q 550.08 345.25 549.97 345.29
  Q 549.63 345.42 549.99 345.44
  Q 550.22 345.46 550.36 345.59
  Q 550.53 345.75 550.30 345.75
  L 549.24 345.75
  Q 548.66 345.75 548.71 346.32
  L 548.76 346.98
  Q 548.79 347.35 548.56 347.65
  C 546.08 350.72 544.52 352.58 540.99 355.61
  C 538.75 357.53 537.44 360.54 535.93 362.43
  Q 526.08 374.79 514.78 385.85
  Q 514.41 386.21 514.50 386.73
  Q 514.64 387.54 514.11 388.12
  Q 504.38 399.04 495.19 410.43
  Q 494.52 411.25 493.40 412.15
  C 491.88 413.38 491.24 415.19 489.77 416.52
  Q 488.17 417.97 487.54 418.82
  Q 481.97 426.26 475.50 432.92
  Q 474.61 433.83 472.83 436.34
  C 471.69 437.96 470.04 439.20 468.92 440.74
  Q 465.15 445.93 460.80 450.63
  A 1.78 1.74 10.5 0 1 460.10 451.10
  Q 458.02 451.86 457.29 454.01
  C 456.56 456.13 454.57 457.39 453.59 458.72
  Q 447.31 467.23 439.73 474.62
  Q 439.53 474.82 439.50 475.03
  Q 439.48 475.17 439.49 475.30
  Q 439.52 475.55 439.35 475.73
  Q 434.28 481.27 429.83 487.33
  C 429.14 488.26 427.79 488.84 427.00 489.83
  Q 417.68 501.42 411.56 508.31
  C 406.35 514.19 401.78 519.98 396.69 525.49
  Q 391.36 531.24 387.97 535.73
  C 383.43 541.75 377.93 547.13 373.90 552.26
  Q 364.88 563.75 354.60 574.13
  C 345.91 582.91 339.25 594.01 331.21 602.71
  Q 325.80 608.57 323.16 611.77
  Q 322.84 612.15 322.36 612.22
  Q 322.18 612.25 321.99 612.25
  Q 321.50 612.26 321.50 612.75
  L 321.50 613.22
  Q 321.50 613.73 321.19 614.15
  Q 318.61 617.64 313.23 623.46
  C 309.13 627.90 303.83 635.15 298.45 640.79
  C 292.80 646.72 287.96 653.59 282.77 659.37
  C 276.04 666.85 271.12 673.71 264.83 680.43
  C 258.47 687.24 253.31 694.74 246.80 701.51
  C 242.51 705.98 238.71 711.32 234.82 715.58
  C 228.47 722.53 222.86 729.96 216.51 736.98
  Q 212.49 741.42 208.70 746.08
  Q 203.97 751.90 198.19 758.38
  C 191.90 765.43 187.08 772.66 179.74 779.49
  Q 179.45 779.76 179.50 780.30
  Q 179.54 780.81 179.20 781.18
  L 157.41 805.70
  Q 157.33 805.78 157.45 805.77
  Q 157.61 805.75 157.77 805.75
  Q 158.09 805.75 157.89 806.01
  Q 152.17 813.08 145.78 819.53
  Q 145.53 819.79 145.49 820.13
  Q 145.45 820.57 145.17 820.91
  L 130.95 837.61
  A 1.12 1.10 19.7 0 1 130.10 838.00
  L 129.26 838.00
  Q 128.72 838.00 128.60 838.53
  C 128.11 840.71 126.25 841.36 125.17 842.81
  Q 120.71 848.86 117.50 852.23
  C 115.98 853.82 115.57 855.51 114.37 856.84
  Q 109.65 862.06 105.51 867.76
  Q 104.68 868.91 103.00 869.97
  C 100.40 871.61 99.15 874.08 97.57 876.09
  C 93.53 881.24 89.97 886.05 85.20 891.08
  Q 79.89 896.69 75.23 902.86
  C 70.79 908.74 65.27 913.77 61.07 920.20
  C 60.26 921.43 60.26 922.74 60.35 924.12
  Q 60.39 924.67 59.87 924.85
  L 59.40 925.00
  Q 36.94 889.42 25.56 846.22
  C 11.74 793.78 1.96 739.55 0.19 685.26
  L 0.00 679.41
  L 0.00 664.22
  L 0.14 658.48
  C 1.87 606.05 11.09 554.37 23.91 503.59
  C 47.79 408.99 123.13 344.94 222.56 344.76
  Q 385.53 344.47 548.50 344.51
  Z"
/>
<path fill="#ffe568" d="
  M 1290.59 443.92
  Q 1289.81 445.04 1288.54 445.12
  Q 1288.04 445.16 1287.71 445.54
  C 1286.51 446.93 1285.49 448.11 1283.76 449.05
  C 1280.85 450.64 1278.47 453.10 1275.84 454.67
  Q 1269.87 458.21 1264.56 462.68
  C 1262.84 464.13 1260.76 464.91 1258.96 466.44
  C 1254.47 470.25 1248.65 473.48 1245.43 476.19
  C 1242.77 478.44 1239.93 479.88 1237.68 481.78
  Q 1233.25 485.51 1228.21 488.40
  C 1227.30 488.92 1226.60 490.01 1225.93 490.42
  C 1221.13 493.37 1216.52 497.25 1212.88 499.71
  Q 1207.68 503.22 1199.96 508.71
  C 1198.50 509.74 1197.59 511.04 1196.12 511.82
  Q 1193.52 513.20 1190.51 515.52
  C 1185.88 519.09 1180.27 522.36 1175.27 526.30
  C 1172.69 528.33 1169.53 529.34 1167.32 531.83
  Q 1166.43 532.84 1165.49 533.47
  Q 1155.68 540.09 1146.28 547.29
  C 1144.32 548.79 1141.87 549.97 1139.77 551.63
  C 1133.84 556.30 1127.52 560.47 1121.30 564.74
  C 1119.46 566.00 1117.59 567.89 1115.42 569.20
  C 1109.88 572.56 1104.96 576.70 1099.46 580.17
  C 1097.82 581.21 1096.58 582.77 1094.85 583.86
  C 1088.21 588.02 1081.93 592.96 1075.46 597.42
  Q 1070.53 600.80 1065.87 604.55
  C 1064.01 606.04 1061.70 606.95 1059.74 608.61
  Q 1056.57 611.28 1055.47 611.99
  C 1050.48 615.18 1045.78 619.26 1040.51 622.32
  C 1038.95 623.22 1037.98 624.69 1036.75 625.50
  C 1026.87 631.96 1017.41 639.11 1007.73 645.79
  Q 1001.73 649.93 995.89 654.31
  C 990.64 658.25 984.49 662.30 978.99 666.57
  C 976.12 668.80 972.80 670.61 969.77 672.89
  C 950.08 687.74 931.80 699.69 920.44 708.19
  Q 918.06 709.97 916.55 710.99
  C 912.62 713.63 909.25 716.57 905.34 718.91
  Q 901.67 721.10 898.45 723.91
  C 895.86 726.17 892.94 727.52 890.21 729.61
  C 884.64 733.88 878.90 737.86 873.14 741.86
  C 870.88 743.42 868.18 745.79 865.55 747.47
  Q 862.22 749.60 859.79 751.54
  C 855.40 755.03 850.43 758.07 846.02 761.43
  C 844.19 762.83 841.88 763.92 839.88 765.49
  Q 836.54 768.11 835.50 768.79
  C 827.23 774.24 819.48 780.40 811.35 786.03
  C 802.74 791.99 794.48 798.58 785.79 804.40
  Q 776.15 810.85 766.87 817.83
  C 764.86 819.34 762.31 820.55 760.20 822.23
  C 753.86 827.32 746.98 831.69 740.21 836.20
  A 1.31 1.25 -11.6 0 0 739.67 836.98
  Q 739.47 837.79 738.77 838.13
  C 733.36 840.79 727.85 845.71 722.71 849.15
  C 721.15 850.20 719.80 851.83 718.06 852.86
  C 712.64 856.08 707.74 860.10 702.47 863.59
  Q 702.22 863.76 698.65 866.61
  C 695.90 868.80 692.67 870.12 689.67 872.72
  C 686.20 875.74 682.33 877.79 678.79 880.66
  C 675.78 883.09 672.30 884.92 669.23 887.44
  C 666.77 889.46 663.95 890.64 661.45 892.68
  Q 657.80 895.67 656.09 896.74
  C 650.96 899.96 647.20 903.82 642.50 906.32
  C 640.68 907.28 639.61 908.99 637.81 910.10
  Q 631.14 914.17 625.09 919.10
  C 623.49 920.41 621.70 920.88 620.03 922.37
  Q 618.38 923.83 615.20 925.96
  Q 608.14 930.69 589.13 944.63
  Q 588.06 945.41 585.54 947.00
  C 582.45 948.95 579.78 951.39 576.80 953.20
  Q 571.41 956.48 566.68 960.67
  C 565.23 961.95 563.06 962.66 561.39 964.15
  C 557.38 967.72 552.46 970.54 548.44 973.51
  Q 545.24 975.86 541.83 977.90
  C 540.40 978.75 539.46 980.06 538.06 981.06
  Q 531.76 985.57 525.37 989.97
  C 522.97 991.62 519.59 994.52 515.96 996.43
  Q 514.57 997.16 514.44 998.83
  Q 514.41 999.25 513.99 999.25
  L 513.02 999.25
  A 1.33 1.29 25.5 0 0 512.22 999.52
  Q 507.81 1002.91 503.10 1005.88
  C 501.15 1007.11 499.57 1009.03 497.36 1010.24
  C 489.92 1014.27 483.65 1020.75 476.50 1025.18
  C 472.26 1027.81 468.94 1030.75 464.77 1033.09
  C 463.11 1034.03 462.03 1035.51 460.38 1036.60
  Q 454.54 1040.47 448.93 1044.67
  Q 445.15 1047.49 443.03 1048.50
  Q 442.58 1048.72 442.26 1049.10
  C 440.36 1051.34 437.26 1052.64 435.54 1053.99
  Q 429.43 1058.81 422.87 1063.03
  C 421.06 1064.20 419.59 1066.00 417.55 1067.19
  C 412.05 1070.40 407.32 1074.51 401.73 1077.69
  Q 400.64 1078.31 399.49 1079.56
  C 397.85 1081.35 394.79 1082.99 393.61 1083.94
  C 389.23 1087.43 384.14 1090.56 380.04 1093.66
  Q 374.63 1097.74 369.06 1101.59
  C 362.36 1106.23 354.95 1111.94 347.58 1116.70
  Q 347.00 1117.08 347.00 1117.77
  L 347.00 1122.51
  A 0.13 0.13 0.0 0 1 346.76 1122.59
  Q 346.64 1122.43 346.64 1122.25
  Q 346.54 1118.83 346.29 1115.40
  C 346.20 1114.15 346.56 1112.64 345.72 1111.30
  Q 345.45 1110.87 345.45 1110.36
  L 345.32 1041.99
  Q 345.19 947.26 345.26 852.50
  Q 345.28 824.08 357.57 794.49
  C 381.40 737.14 434.19 696.80 496.82 692.45
  Q 502.77 692.04 516.82 692.03
  Q 671.03 691.96 825.25 692.02
  Q 837.72 692.03 845.22 691.31
  C 949.17 681.28 1029.66 590.43 1029.73 486.68
  Q 1029.77 415.98 1029.74 345.47
  Q 1029.74 344.60 1030.61 344.60
  Q 1090.47 344.23 1150.68 344.73
  Q 1163.55 344.84 1170.64 345.65
  C 1229.09 352.31 1268.14 391.80 1290.59 443.92
  Z"
/>
<path fill="#ffde52" d="
  M 1290.59 443.92
  C 1307.37 481.88 1316.94 524.40 1324.71 564.71
  Q 1334.99 618.03 1336.47 672.32
  Q 1338.65 752.31 1314.38 828.41
  C 1300.44 872.10 1283.94 919.12 1253.77 954.53
  C 1227.64 985.20 1192.98 998.99 1152.75 998.99
  Q 910.40 999.01 668.79 999.00
  Q 667.51 999.00 667.51 1000.27
  L 667.49 1039.53
  Q 667.49 1040.00 667.97 1040.00
  L 988.76 1040.00
  A 1.02 1.02 0.0 0 1 989.78 1041.02
  C 989.76 1083.38 990.46 1126.08 989.43 1168.68
  C 987.47 1249.61 918.42 1296.92 849.50 1320.01
  C 763.71 1348.77 673.47 1359.12 583.75 1344.48
  C 553.00 1339.47 522.60 1332.09 492.96 1322.51
  C 425.44 1300.67 352.80 1254.70 345.84 1176.52
  Q 345.29 1170.34 345.27 1159.35
  Q 345.18 1100.68 345.32 1041.99
  L 345.45 1110.36
  Q 345.45 1110.87 345.72 1111.30
  C 346.56 1112.64 346.20 1114.15 346.29 1115.40
  Q 346.54 1118.83 346.64 1122.25
  Q 346.64 1122.43 346.76 1122.59
  A 0.13 0.13 0.0 0 0 347.00 1122.51
  L 347.00 1117.77
  Q 347.00 1117.08 347.58 1116.70
  C 354.95 1111.94 362.36 1106.23 369.06 1101.59
  Q 374.63 1097.74 380.04 1093.66
  C 384.14 1090.56 389.23 1087.43 393.61 1083.94
  C 394.79 1082.99 397.85 1081.35 399.49 1079.56
  Q 400.64 1078.31 401.73 1077.69
  C 407.32 1074.51 412.05 1070.40 417.55 1067.19
  C 419.59 1066.00 421.06 1064.20 422.87 1063.03
  Q 429.43 1058.81 435.54 1053.99
  C 437.26 1052.64 440.36 1051.34 442.26 1049.10
  Q 442.58 1048.72 443.03 1048.50
  Q 445.15 1047.49 448.93 1044.67
  Q 454.54 1040.47 460.38 1036.60
  C 462.03 1035.51 463.11 1034.03 464.77 1033.09
  C 468.94 1030.75 472.26 1027.81 476.50 1025.18
  C 483.65 1020.75 489.92 1014.27 497.36 1010.24
  C 499.57 1009.03 501.15 1007.11 503.10 1005.88
  Q 507.81 1002.91 512.22 999.52
  A 1.33 1.29 25.5 0 1 513.02 999.25
  L 513.99 999.25
  Q 514.41 999.25 514.44 998.83
  Q 514.57 997.16 515.96 996.43
  C 519.59 994.52 522.97 991.62 525.37 989.97
  Q 531.76 985.57 538.06 981.06
  C 539.46 980.06 540.40 978.75 541.83 977.90
  Q 545.24 975.86 548.44 973.51
  C 552.46 970.54 557.38 967.72 561.39 964.15
  C 563.06 962.66 565.23 961.95 566.68 960.67
  Q 571.41 956.48 576.80 953.20
  C 579.78 951.39 582.45 948.95 585.54 947.00
  Q 588.06 945.41 589.13 944.63
  Q 608.14 930.69 615.20 925.96
  Q 618.38 923.83 620.03 922.37
  C 621.70 920.88 623.49 920.41 625.09 919.10
  Q 631.14 914.17 637.81 910.10
  C 639.61 908.99 640.68 907.28 642.50 906.32
  C 647.20 903.82 650.96 899.96 656.09 896.74
  Q 657.80 895.67 661.45 892.68
  C 663.95 890.64 666.77 889.46 669.23 887.44
  C 672.30 884.92 675.78 883.09 678.79 880.66
  C 682.33 877.79 686.20 875.74 689.67 872.72
  C 692.67 870.12 695.90 868.80 698.65 866.61
  Q 702.22 863.76 702.47 863.59
  C 707.74 860.10 712.64 856.08 718.06 852.86
  C 719.80 851.83 721.15 850.20 722.71 849.15
  C 727.85 845.71 733.36 840.79 738.77 838.13
  Q 739.47 837.79 739.67 836.98
  A 1.31 1.25 -11.6 0 1 740.21 836.20
  C 746.98 831.69 753.86 827.32 760.20 822.23
  C 762.31 820.55 764.86 819.34 766.87 817.83
  Q 776.15 810.85 785.79 804.40
  C 794.48 798.58 802.74 791.99 811.35 786.03
  C 819.48 780.40 827.23 774.24 835.50 768.79
  Q 836.54 768.11 839.88 765.49
  C 841.88 763.92 844.19 762.83 846.02 761.43
  C 850.43 758.07 855.40 755.03 859.79 751.54
  Q 862.22 749.60 865.55 747.47
  C 868.18 745.79 870.88 743.42 873.14 741.86
  C 878.90 737.86 884.64 733.88 890.21 729.61
  C 892.94 727.52 895.86 726.17 898.45 723.91
  Q 901.67 721.10 905.34 718.91
  C 909.25 716.57 912.62 713.63 916.55 710.99
  Q 918.06 709.97 920.44 708.19
  C 931.80 699.69 950.08 687.74 969.77 672.89
  C 972.80 670.61 976.12 668.80 978.99 666.57
  C 984.49 662.30 990.64 658.25 995.89 654.31
  Q 1001.73 649.93 1007.73 645.79
  C 1017.41 639.11 1026.87 631.96 1036.75 625.50
  C 1037.98 624.69 1038.95 623.22 1040.51 622.32
  C 1045.78 619.26 1050.48 615.18 1055.47 611.99
  Q 1056.57 611.28 1059.74 608.61
  C 1061.70 606.95 1064.01 606.04 1065.87 604.55
  Q 1070.53 600.80 1075.46 597.42
  C 1081.93 592.96 1088.21 588.02 1094.85 583.86
  C 1096.58 582.77 1097.82 581.21 1099.46 580.17
  C 1104.96 576.70 1109.88 572.56 1115.42 569.20
  C 1117.59 567.89 1119.46 566.00 1121.30 564.74
  C 1127.52 560.47 1133.84 556.30 1139.77 551.63
  C 1141.87 549.97 1144.32 548.79 1146.28 547.29
  Q 1155.68 540.09 1165.49 533.47
  Q 1166.43 532.84 1167.32 531.83
  C 1169.53 529.34 1172.69 528.33 1175.27 526.30
  C 1180.27 522.36 1185.88 519.09 1190.51 515.52
  Q 1193.52 513.20 1196.12 511.82
  C 1197.59 511.04 1198.50 509.74 1199.96 508.71
  Q 1207.68 503.22 1212.88 499.71
  C 1216.52 497.25 1221.13 493.37 1225.93 490.42
  C 1226.60 490.01 1227.30 488.92 1228.21 488.40
  Q 1233.25 485.51 1237.68 481.78
  C 1239.93 479.88 1242.77 478.44 1245.43 476.19
  C 1248.65 473.48 1254.47 470.25 1258.96 466.44
  C 1260.76 464.91 1262.84 464.13 1264.56 462.68
  Q 1269.87 458.21 1275.84 454.67
  C 1278.47 453.10 1280.85 450.64 1283.76 449.05
  C 1285.49 448.11 1286.51 446.93 1287.71 445.54
  Q 1288.04 445.16 1288.54 445.12
  Q 1289.81 445.04 1290.59 443.92
  Z
  M 848.9642 1244.7396
  A 61.37 60.46 89.8 0 0 909.2096 1183.1590
  A 61.37 60.46 89.8 0 0 848.5358 1122.0004
  A 61.37 60.46 89.8 0 0 788.2904 1183.5810
  A 61.37 60.46 89.8 0 0 848.9642 1244.7396
  Z"
/>
<path fill="#080808" fill-opacity="0.059" d="
  M 0.00 658.43
  Q 0.07 658.45 0.14 658.48
  L 0.00 664.22
  L 0.00 658.43
  Z"
/>
<path fill="#080808" fill-opacity="0.059" d="
  M 0.00 679.41
  L 0.19 685.26
  Q 0.10 685.22 0.00 685.19
  L 0.00 679.41
  Z"
/>
<path fill="#3372a2" d="
  M 307.20 823.01
  Q 305.03 837.63 305.03 846.06
  Q 304.98 922.38 305.01 997.71
  Q 305.01 999.01 303.71 999.01
  Q 245.97 999.00 189.25 998.99
  Q 180.19 998.99 167.76 997.10
  Q 168.27 997.05 168.70 996.76
  Q 169.08 996.51 168.71 996.25
  L 167.75 995.55
  Q 167.08 995.07 167.61 994.44
  L 190.44 967.42
  Q 190.80 967.00 191.34 967.00
  L 192.26 967.00
  Q 192.81 967.00 192.77 966.45
  Q 192.61 964.51 193.53 963.54
  C 201.03 955.64 207.63 947.04 214.83 938.98
  C 221.24 931.80 227.09 924.30 233.54 917.03
  C 238.27 911.71 243.24 905.42 247.25 900.75
  Q 273.96 869.66 300.44 838.38
  Q 300.77 838.00 301.27 838.00
  L 302.78 838.00
  Q 303.38 838.00 303.25 837.41
  Q 302.96 836.02 304.22 835.60
  A 0.60 0.58 8.1 0 0 304.51 835.39
  Q 305.04 834.68 304.51 834.50
  Q 304.09 834.36 304.50 834.25
  Q 304.62 834.21 304.74 834.17
  A 0.07 0.07 0.0 0 0 304.77 834.06
  Q 303.46 832.39 304.23 830.24
  Q 304.48 829.53 304.83 830.19
  L 305.17 830.81
  Q 305.42 831.29 305.48 830.75
  Q 305.94 826.43 306.67 822.19
  Q 306.96 820.56 306.92 822.24
  Q 306.91 822.48 307.20 823.01
  Z"
/>
<path fill="#080808" fill-opacity="0.059" d="
  M 861.19 1515.00
  L 450.19 1515.00
  L 377.25 1514.30
  Q 376.30 1514.29 376.43 1513.35
  L 376.50 1512.82
  Q 376.59 1512.19 377.21 1512.26
  C 379.85 1512.56 381.79 1512.83 383.77 1510.80
  Q 384.07 1510.49 384.50 1510.55
  Q 385.27 1510.64 385.61 1509.82
  Q 385.77 1509.43 386.18 1509.52
  Q 387.15 1509.74 387.62 1508.89
  Q 387.84 1508.50 388.29 1508.50
  L 389.75 1508.50
  Q 390.35 1508.50 390.50 1507.93
  Q 390.68 1507.24 391.60 1507.49
  Q 392.14 1507.63 392.37 1507.12
  Q 392.80 1506.14 393.95 1506.52
  Q 394.35 1506.65 394.45 1506.24
  Q 394.62 1505.48 396.44 1505.43
  A 0.26 0.25 -31.3 0 0 396.56 1504.95
  Q 395.88 1504.57 395.11 1504.77
  Q 394.86 1504.83 395.07 1504.68
  Q 397.27 1503.11 399.95 1503.53
  A 0.34 0.31 19.3 0 0 400.29 1503.38
  L 400.49 1503.05
  A 0.21 0.21 0.0 0 0 400.28 1502.74
  L 399.73 1502.81
  Q 399.62 1502.83 399.70 1502.75
  L 400.74 1501.75
  Q 401.14 1501.36 401.69 1501.48
  Q 404.22 1502.05 405.51 1499.87
  Q 405.81 1499.37 406.38 1499.50
  Q 407.72 1499.81 408.71 1498.91
  Q 408.99 1498.66 409.37 1498.68
  Q 410.69 1498.77 411.50 1497.84
  Q 411.78 1497.51 412.21 1497.56
  Q 413.75 1497.76 414.87 1496.83
  Q 415.31 1496.46 415.87 1496.57
  Q 417.02 1496.79 417.56 1495.80
  Q 417.74 1495.47 417.91 1495.81
  Q 417.97 1495.94 418.03 1496.08
  Q 418.37 1496.80 418.42 1496.07
  Q 418.42 1495.95 418.30 1495.81
  A 0.21 0.21 0.0 0 1 418.49 1495.46
  Q 420.05 1495.79 421.00 1494.79
  Q 421.25 1494.53 421.61 1494.50
  Q 422.24 1494.44 422.66 1493.81
  Q 422.86 1493.50 423.24 1493.50
  L 427.21 1493.50
  Q 427.65 1493.50 427.52 1493.09
  Q 427.47 1492.90 427.41 1492.73
  Q 427.36 1492.57 427.53 1492.57
  L 431.50 1492.48
  Q 432.08 1492.47 432.50 1492.07
  Q 433.49 1491.13 434.97 1491.53
  Q 435.63 1491.71 435.73 1491.04
  Q 435.86 1490.16 436.98 1490.52
  Q 437.73 1490.77 437.50 1490.01
  Q 437.45 1489.86 437.41 1489.72
  Q 437.36 1489.57 437.51 1489.57
  L 441.91 1489.47
  A 0.51 0.51 0.0 0 0 442.41 1488.88
  Q 442.30 1488.22 443.58 1488.54
  A 0.60 0.59 20.1 0 0 444.26 1488.23
  L 444.50 1487.72
  Q 444.61 1487.50 444.86 1487.50
  L 449.21 1487.50
  Q 449.65 1487.50 449.52 1487.08
  Q 449.46 1486.88 449.40 1486.69
  Q 449.34 1486.50 449.54 1486.50
  L 454.43 1486.50
  Q 454.62 1486.50 454.76 1486.36
  L 455.05 1486.07
  Q 455.33 1485.79 454.93 1485.81
  Q 454.72 1485.81 454.54 1485.99
  A 0.10 0.10 0.0 0 1 454.39 1485.87
  Q 454.72 1485.30 455.50 1485.51
  Q 455.82 1485.60 455.97 1485.30
  L 456.20 1484.83
  Q 456.29 1484.64 456.10 1484.71
  Q 455.95 1484.77 455.81 1484.81
  Q 455.52 1484.91 455.50 1484.77
  Q 455.50 1484.71 455.51 1484.65
  Q 455.54 1484.53 455.75 1484.53
  L 462.27 1484.42
  Q 462.74 1484.41 463.09 1484.10
  C 464.80 1482.60 467.12 1484.18 468.90 1483.24
  Q 469.82 1482.75 468.78 1482.75
  L 463.78 1482.75
  Q 463.31 1482.75 463.72 1482.50
  Q 464.29 1482.16 465.09 1482.30
  Q 467.60 1482.74 471.20 1482.45
  Q 471.62 1482.42 471.50 1482.01
  Q 471.45 1481.85 471.40 1481.69
  Q 471.34 1481.50 471.54 1481.50
  L 478.21 1481.50
  Q 478.65 1481.50 478.52 1481.08
  Q 478.46 1480.88 478.40 1480.69
  Q 478.34 1480.50 478.54 1480.50
  L 481.75 1480.50
  Q 482.24 1480.50 482.25 1480.01
  Q 482.25 1479.88 482.25 1479.75
  Q 482.25 1479.50 482.50 1479.50
  L 485.80 1479.50
  Q 486.19 1479.50 486.38 1479.17
  L 486.67 1478.68
  A 0.39 0.37 15.0 0 1 487.00 1478.50
  L 494.55 1478.50
  Q 495.10 1478.50 495.35 1478.02
  L 495.50 1477.75
  Q 495.61 1477.54 495.84 1477.53
  L 500.15 1477.42
  A 0.36 0.36 0.0 0 0 500.46 1476.89
  L 500.29 1476.57
  A 0.04 0.04 0.0 0 1 500.32 1476.51
  L 505.21 1476.50
  Q 505.64 1476.49 505.52 1476.08
  Q 505.47 1475.89 505.41 1475.72
  Q 505.34 1475.53 505.54 1475.52
  L 514.17 1475.36
  Q 514.49 1475.35 514.50 1475.03
  Q 514.50 1474.89 514.50 1474.75
  Q 514.50 1474.50 514.75 1474.50
  L 521.22 1474.50
  Q 521.63 1474.50 521.91 1474.21
  L 522.17 1473.95
  Q 522.26 1473.87 522.14 1473.90
  Q 521.75 1473.99 521.57 1473.77
  Q 521.35 1473.50 521.70 1473.50
  L 532.99 1473.50
  Q 533.20 1473.50 533.17 1473.29
  L 533.09 1472.67
  Q 533.07 1472.48 533.26 1472.48
  L 539.96 1472.42
  Q 540.31 1472.41 540.20 1472.08
  Q 540.13 1471.89 539.81 1471.87
  Q 538.13 1471.81 536.44 1471.81
  Q 536.22 1471.81 536.13 1471.69
  Q 535.98 1471.50 536.22 1471.50
  L 549.19 1471.50
  Q 549.55 1471.50 549.51 1471.14
  Q 549.48 1470.89 549.40 1470.70
  Q 549.31 1470.49 549.53 1470.49
  L 563.10 1470.49
  Q 563.76 1470.49 563.45 1469.91
  L 563.32 1469.67
  Q 563.23 1469.50 563.42 1469.50
  L 572.75 1469.50
  A 0.50 0.50 0.0 0 0 573.25 1468.99
  Q 573.25 1468.86 573.25 1468.72
  A 0.18 0.17 -90.0 0 1 573.42 1468.54
  L 585.02 1468.41
  A 0.36 0.36 0.0 0 0 585.37 1468.05
  L 585.38 1467.66
  Q 585.38 1467.50 585.53 1467.50
  L 605.69 1467.49
  Q 606.04 1467.49 606.25 1467.20
  Q 606.39 1467.02 606.38 1466.80
  Q 606.36 1466.53 606.63 1466.53
  Q 612.56 1466.43 627.25 1466.54
  Q 627.99 1466.54 628.03 1465.94
  A 0.47 0.46 1.3 0 1 628.50 1465.50
  L 713.50 1465.50
  Q 714.01 1465.50 713.99 1466.01
  Q 713.96 1466.55 714.50 1466.55
  Q 728.17 1466.41 734.92 1466.49
  A 0.13 0.13 0.0 0 1 735.00 1466.72
  L 734.47 1467.11
  Q 733.92 1467.51 734.60 1467.50
  Q 734.74 1467.50 734.87 1467.50
  A 0.09 0.08 -52.9 0 1 734.89 1467.67
  L 734.19 1467.89
  Q 733.48 1468.11 734.18 1468.37
  Q 735.77 1468.96 736.76 1467.80
  Q 737.06 1467.44 737.53 1467.44
  L 756.30 1467.50
  Q 756.69 1467.50 756.89 1467.84
  L 757.17 1468.32
  A 0.39 0.37 -15.0 0 0 757.50 1468.50
  L 768.75 1468.50
  Q 769.00 1468.50 769.00 1468.75
  L 769.00 1469.22
  Q 769.00 1469.44 769.22 1469.44
  L 779.74 1469.48
  Q 780.13 1469.48 780.05 1469.86
  Q 779.92 1470.45 780.05 1471.03
  A 0.11 0.10 38.7 0 0 780.26 1471.01
  Q 780.25 1470.87 780.25 1470.75
  Q 780.25 1470.50 780.50 1470.50
  L 792.97 1470.47
  Q 793.39 1470.47 793.28 1470.87
  Q 793.23 1471.08 793.16 1471.26
  Q 793.13 1471.33 793.21 1471.34
  L 800.19 1471.55
  Q 800.40 1471.56 800.33 1471.75
  L 800.20 1472.15
  Q 800.09 1472.50 800.46 1472.50
  L 802.75 1472.50
  Q 803.28 1472.50 803.64 1472.11
  Q 804.68 1471.00 806.57 1471.52
  Q 806.88 1471.61 806.84 1471.77
  Q 806.82 1471.89 806.67 1472.05
  Q 806.47 1472.25 806.76 1472.25
  L 807.25 1472.25
  Q 807.50 1472.25 807.50 1472.00
  Q 807.50 1471.85 807.50 1471.71
  Q 807.49 1471.51 807.63 1471.65
  L 809.16 1473.23
  Q 809.40 1473.47 809.74 1473.47
  L 819.52 1473.47
  A 0.47 0.47 0.0 0 1 819.99 1473.93
  Q 820.00 1474.08 820.00 1474.22
  Q 820.00 1474.44 820.22 1474.44
  L 825.51 1474.52
  Q 826.01 1474.53 825.99 1475.03
  Q 825.96 1475.54 826.50 1475.53
  Q 832.50 1475.44 835.44 1475.50
  Q 835.89 1475.51 835.98 1475.94
  Q 836.05 1476.30 836.43 1476.36
  Q 838.00 1476.59 840.76 1476.52
  Q 841.00 1476.51 841.00 1476.75
  Q 841.00 1476.90 841.00 1477.05
  A 0.21 0.20 22.8 0 1 840.65 1477.19
  L 840.42 1476.96
  Q 840.25 1476.80 840.13 1477.00
  L 840.00 1477.23
  Q 839.87 1477.44 840.11 1477.44
  L 846.50 1477.45
  Q 847.08 1477.45 846.49 1477.74
  Q 846.31 1477.83 846.19 1477.98
  Q 845.83 1478.45 846.42 1478.45
  L 854.44 1478.45
  Q 854.92 1478.45 855.00 1478.92
  Q 855.03 1479.11 855.09 1479.28
  Q 855.14 1479.41 855.28 1479.41
  L 864.59 1479.54
  Q 864.71 1479.54 864.71 1479.66
  L 864.71 1480.11
  Q 864.71 1480.34 864.65 1480.12
  Q 864.52 1479.69 864.10 1479.76
  Q 863.70 1479.82 863.98 1480.11
  L 864.31 1480.44
  A 0.26 0.25 45.8 0 1 864.31 1480.81
  L 864.02 1481.10
  A 0.23 0.23 0.0 0 0 864.18 1481.49
  L 870.71 1481.50
  Q 871.15 1481.50 870.94 1481.89
  L 870.78 1482.20
  A 0.05 0.04 17.3 0 0 870.82 1482.26
  Q 874.71 1482.75 878.56 1482.36
  Q 878.75 1482.34 879.01 1482.51
  A 0.13 0.13 0.0 0 1 878.92 1482.74
  Q 878.49 1482.66 878.17 1482.95
  Q 877.70 1483.36 878.32 1483.38
  L 882.75 1483.55
  Q 883.11 1483.56 882.84 1483.80
  Q 882.74 1483.88 882.64 1483.98
  Q 882.22 1484.41 882.82 1484.43
  L 886.72 1484.53
  Q 887.08 1484.54 886.83 1484.80
  L 886.61 1485.02
  Q 886.28 1485.34 886.74 1485.38
  L 888.83 1485.55
  Q 889.00 1485.57 889.00 1485.74
  Q 889.00 1485.89 889.00 1486.05
  A 0.21 0.20 22.8 0 1 888.65 1486.19
  L 888.42 1485.96
  Q 888.25 1485.80 888.13 1486.00
  L 887.98 1486.25
  Q 887.83 1486.50 888.12 1486.50
  L 892.21 1486.50
  Q 892.63 1486.50 892.34 1486.79
  L 892.08 1487.04
  A 0.37 0.37 0.0 0 0 892.43 1487.66
  Q 895.85 1486.83 898.84 1488.25
  Q 899.30 1488.47 899.81 1488.42
  Q 900.41 1488.35 900.93 1488.53
  Q 901.14 1488.61 901.06 1488.82
  Q 901.01 1488.96 900.97 1489.11
  A 0.15 0.14 12.3 0 0 901.10 1489.30
  L 904.22 1489.57
  Q 904.48 1489.60 904.26 1489.73
  L 903.98 1489.90
  Q 903.07 1490.43 904.13 1490.45
  L 908.06 1490.52
  Q 908.50 1490.53 908.81 1490.84
  Q 909.78 1491.81 911.24 1491.45
  Q 911.68 1491.33 911.96 1491.70
  Q 912.92 1492.94 914.74 1492.44
  A 0.23 0.22 -88.4 0 1 915.01 1492.73
  Q 914.95 1492.89 914.90 1493.06
  Q 914.84 1493.25 915.03 1493.29
  L 915.53 1493.40
  A 0.19 0.19 0.0 0 0 915.70 1493.08
  L 915.34 1492.72
  Q 915.11 1492.49 915.44 1492.50
  Q 915.62 1492.50 915.80 1492.50
  Q 915.95 1492.50 915.95 1492.65
  Q 915.94 1493.91 917.38 1493.50
  Q 917.89 1493.36 918.08 1493.85
  Q 918.53 1494.96 920.17 1494.43
  Q 920.66 1494.27 920.88 1494.73
  Q 921.55 1496.10 923.48 1495.34
  A 0.35 0.35 0.0 0 1 923.96 1495.66
  L 923.96 1496.08
  Q 923.96 1496.45 924.33 1496.46
  L 928.19 1496.52
  A 0.11 0.11 0.0 0 1 928.25 1496.72
  L 927.82 1497.03
  Q 927.19 1497.50 927.97 1497.50
  L 929.42 1497.50
  Q 929.79 1497.50 929.85 1497.87
  L 929.91 1498.25
  Q 929.94 1498.38 930.03 1498.29
  L 930.48 1497.85
  Q 930.92 1497.43 930.95 1498.04
  Q 931.00 1498.72 931.92 1498.50
  Q 932.49 1498.36 932.50 1498.95
  Q 932.50 1499.10 932.50 1499.25
  Q 932.50 1499.50 932.75 1499.50
  L 936.16 1499.50
  A 0.12 0.12 0.0 0 1 936.25 1499.71
  L 935.96 1500.00
  A 0.16 0.16 0.0 0 0 936.09 1500.28
  Q 937.26 1500.14 937.97 1500.87
  Q 938.70 1501.60 938.46 1500.93
  Q 938.41 1500.79 938.49 1500.63
  Q 938.60 1500.42 938.74 1500.61
  L 939.18 1501.20
  Q 939.40 1501.50 939.77 1501.50
  L 941.18 1501.50
  A 0.12 0.12 0.0 0 1 941.25 1501.72
  L 940.82 1502.03
  Q 940.19 1502.50 940.97 1502.50
  L 943.18 1502.50
  A 0.12 0.11 27.1 0 1 943.25 1502.71
  L 942.82 1503.03
  Q 942.19 1503.50 942.97 1503.50
  L 944.75 1503.50
  Q 945.37 1503.50 944.94 1503.94
  L 944.67 1504.21
  Q 944.38 1504.49 944.78 1504.49
  L 947.89 1504.51
  A 0.12 0.11 0.3 0 1 948.00 1504.61
  Q 948.03 1504.92 947.80 1505.07
  Q 947.64 1505.17 947.81 1505.25
  L 948.65 1505.64
  Q 948.96 1505.78 948.81 1506.09
  Q 948.76 1506.21 948.72 1506.34
  A 0.12 0.11 -83.8 0 0 948.83 1506.48
  L 950.76 1506.51
  A 0.25 0.25 0.0 0 1 950.93 1506.94
  L 950.66 1507.21
  Q 950.38 1507.50 950.78 1507.50
  L 954.21 1507.50
  Q 954.65 1507.50 954.27 1507.72
  L 953.90 1507.94
  Q 953.45 1508.21 953.95 1508.36
  L 954.58 1508.56
  Q 954.76 1508.62 954.62 1508.75
  L 954.19 1509.18
  A 0.26 0.25 -77.9 0 0 954.46 1509.60
  Q 956.26 1508.92 957.08 1510.14
  Q 957.31 1510.50 957.74 1510.50
  L 962.20 1510.50
  A 0.12 0.12 0.0 0 1 962.26 1510.73
  L 961.95 1510.91
  Q 961.61 1511.11 961.99 1511.20
  L 968.61 1512.79
  Q 968.85 1512.85 968.62 1512.95
  Q 968.45 1513.03 968.26 1512.93
  Q 967.98 1512.80 967.71 1512.95
  Q 967.06 1513.29 967.05 1514.01
  Q 967.04 1514.56 966.49 1514.57
  L 861.19 1515.00
  Z"
/>
</svg>
